solid OpenSCAD_Model
  facet normal -1 0 0
    outer loop
      vertex 234.999 -964 44
      vertex 234.999 -920 52.8
      vertex 234.999 -920 44
    endloop
  endfacet
  facet normal -1 0 0
    outer loop
      vertex 234.999 -964 324
      vertex 234.999 -920 52.8
      vertex 234.999 -964 44
    endloop
  endfacet
  facet normal -1 0 0
    outer loop
      vertex 234.999 -920 52.8
      vertex 234.999 -964 324
      vertex 234.999 -920 324
    endloop
  endfacet
  facet normal 0 0 -1
    outer loop
      vertex -235.001 -964 324
      vertex -22.0005 -920 324
      vertex -22.0005 -964 324
    endloop
  endfacet
  facet normal -0 0 -1
    outer loop
      vertex -22.0005 -920 324
      vertex -235.001 -964 324
      vertex -235.001 -920 324
    endloop
  endfacet
  facet normal 0 0 -1
    outer loop
      vertex -470 -964 324
      vertex -279 -920 324
      vertex -279 -964 324
    endloop
  endfacet
  facet normal -0 0 -1
    outer loop
      vertex -279 -920 324
      vertex -470 -964 324
      vertex -470 -920 324
    endloop
  endfacet
  facet normal 0 0 -1
    outer loop
      vertex 21.9995 -964 324
      vertex 234.999 -920 324
      vertex 234.999 -964 324
    endloop
  endfacet
  facet normal -0 0 -1
    outer loop
      vertex 234.999 -920 324
      vertex 21.9995 -964 324
      vertex 21.9995 -920 324
    endloop
  endfacet
  facet normal 0 0 -1
    outer loop
      vertex 279 -964 324
      vertex 470 -920 324
      vertex 470 -964 324
    endloop
  endfacet
  facet normal -0 0 -1
    outer loop
      vertex 470 -920 324
      vertex 279 -964 324
      vertex 279 -920 324
    endloop
  endfacet
  facet normal -0 0 1
    outer loop
      vertex -470 -920 44
      vertex -279 -964 44
      vertex -279 -920 44
    endloop
  endfacet
  facet normal 0 0 1
    outer loop
      vertex -279 -964 44
      vertex -470 -920 44
      vertex -470 -964 44
    endloop
  endfacet
  facet normal -0 0 1
    outer loop
      vertex -235.001 -920 44
      vertex -22.0005 -964 44
      vertex -22.0005 -920 44
    endloop
  endfacet
  facet normal 0 0 1
    outer loop
      vertex -22.0005 -964 44
      vertex -235.001 -920 44
      vertex -235.001 -964 44
    endloop
  endfacet
  facet normal -0 0 1
    outer loop
      vertex 21.9995 -920 44
      vertex 234.999 -964 44
      vertex 234.999 -920 44
    endloop
  endfacet
  facet normal 0 0 1
    outer loop
      vertex 234.999 -964 44
      vertex 21.9995 -920 44
      vertex 21.9995 -964 44
    endloop
  endfacet
  facet normal -0 0 1
    outer loop
      vertex 279 -920 44
      vertex 470 -964 44
      vertex 470 -920 44
    endloop
  endfacet
  facet normal 0 0 1
    outer loop
      vertex 470 -964 44
      vertex 279 -920 44
      vertex 279 -964 44
    endloop
  endfacet
  facet normal 1 -0 0
    outer loop
      vertex 279 -964 324
      vertex 279 -920 52.8
      vertex 279 -920 324
    endloop
  endfacet
  facet normal 1 0 0
    outer loop
      vertex 279 -964 44
      vertex 279 -920 52.8
      vertex 279 -964 324
    endloop
  endfacet
  facet normal 1 0 0
    outer loop
      vertex 279 -920 52.8
      vertex 279 -964 44
      vertex 279 -920 44
    endloop
  endfacet
  facet normal 0 -1 0
    outer loop
      vertex 234.999 -964 44
      vertex 279 -964 324
      vertex 234.999 -964 324
    endloop
  endfacet
  facet normal 0 -1 -0
    outer loop
      vertex 279 -964 324
      vertex 234.999 -964 44
      vertex 279 -964 44
    endloop
  endfacet
  facet normal 0 -1 0
    outer loop
      vertex -22.0005 -964 44
      vertex 21.9995 -964 324
      vertex -22.0005 -964 324
    endloop
  endfacet
  facet normal 0 -1 -0
    outer loop
      vertex 21.9995 -964 324
      vertex -22.0005 -964 44
      vertex 21.9995 -964 44
    endloop
  endfacet
  facet normal 0 -1 0
    outer loop
      vertex -279 -964 44
      vertex -235.001 -964 324
      vertex -279 -964 324
    endloop
  endfacet
  facet normal 0 -1 -0
    outer loop
      vertex -235.001 -964 324
      vertex -279 -964 44
      vertex -235.001 -964 44
    endloop
  endfacet
  facet normal 0 -1 0
    outer loop
      vertex -514 -964 1300
      vertex -470 -964 368
      vertex -470 -964 1300
    endloop
  endfacet
  facet normal 0 -1 0
    outer loop
      vertex -279 -964 324
      vertex -470 -964 368
      vertex -470 -964 324
    endloop
  endfacet
  facet normal 0 -1 0
    outer loop
      vertex -514 -964 -100
      vertex -470 -964 368
      vertex -514 -964 1300
    endloop
  endfacet
  facet normal 0 -1 -0
    outer loop
      vertex -470 -964 368
      vertex -514 -964 -100
      vertex -470 -964 324
    endloop
  endfacet
  facet normal 0 -1 0
    outer loop
      vertex -470 -964 0
      vertex -279 -964 44
      vertex -470 -964 44
    endloop
  endfacet
  facet normal 0 -1 -0
    outer loop
      vertex -279 -964 44
      vertex -470 -964 0
      vertex -235.001 -964 44
    endloop
  endfacet
  facet normal 0 -1 -0
    outer loop
      vertex -235.001 -964 44
      vertex -470 -964 0
      vertex -22.0005 -964 44
    endloop
  endfacet
  facet normal 0 -1 -0
    outer loop
      vertex -22.0005 -964 44
      vertex -470 -964 0
      vertex 21.9995 -964 44
    endloop
  endfacet
  facet normal 0 -1 0
    outer loop
      vertex 470 -964 0
      vertex 21.9995 -964 44
      vertex -470 -964 0
    endloop
  endfacet
  facet normal 0 -1 0
    outer loop
      vertex 21.9995 -964 44
      vertex 470 -964 0
      vertex 234.999 -964 44
    endloop
  endfacet
  facet normal 0 -1 0
    outer loop
      vertex 234.999 -964 44
      vertex 470 -964 0
      vertex 279 -964 44
    endloop
  endfacet
  facet normal 0 -1 -0
    outer loop
      vertex -470 -964 324
      vertex -514 -964 -100
      vertex -470 -964 44
    endloop
  endfacet
  facet normal 0 -1 -0
    outer loop
      vertex -470 -964 44
      vertex -514 -964 -100
      vertex -470 -964 0
    endloop
  endfacet
  facet normal 0 -1 -0
    outer loop
      vertex -470 -964 0
      vertex -514 -964 -100
      vertex -470 -964 -100
    endloop
  endfacet
  facet normal 0 -1 0
    outer loop
      vertex 470 -964 368
      vertex 514 -964 1300
      vertex 470 -964 1300
    endloop
  endfacet
  facet normal 0 -1 0
    outer loop
      vertex -235.001 -964 324
      vertex -470 -964 368
      vertex -279 -964 324
    endloop
  endfacet
  facet normal 0 -1 0
    outer loop
      vertex -22.0005 -964 324
      vertex -470 -964 368
      vertex -235.001 -964 324
    endloop
  endfacet
  facet normal 0 -1 0
    outer loop
      vertex -470 -964 368
      vertex -22.0005 -964 324
      vertex 470 -964 368
    endloop
  endfacet
  facet normal 0 -1 0
    outer loop
      vertex 21.9995 -964 324
      vertex 470 -964 368
      vertex -22.0005 -964 324
    endloop
  endfacet
  facet normal 0 -1 0
    outer loop
      vertex 234.999 -964 324
      vertex 470 -964 368
      vertex 21.9995 -964 324
    endloop
  endfacet
  facet normal 0 -1 0
    outer loop
      vertex 279 -964 324
      vertex 470 -964 368
      vertex 234.999 -964 324
    endloop
  endfacet
  facet normal 0 -1 0
    outer loop
      vertex 470 -964 324
      vertex 470 -964 368
      vertex 279 -964 324
    endloop
  endfacet
  facet normal 0 -1 0
    outer loop
      vertex 514 -964 -100
      vertex 470 -964 368
      vertex 470 -964 324
    endloop
  endfacet
  facet normal 0 -1 0
    outer loop
      vertex 514 -964 -100
      vertex 470 -964 324
      vertex 470 -964 44
    endloop
  endfacet
  facet normal 0 -1 0
    outer loop
      vertex 279 -964 44
      vertex 470 -964 0
      vertex 470 -964 44
    endloop
  endfacet
  facet normal 0 -1 0
    outer loop
      vertex 514 -964 -100
      vertex 470 -964 44
      vertex 470 -964 0
    endloop
  endfacet
  facet normal 0 -1 0
    outer loop
      vertex 514 -964 -100
      vertex 470 -964 0
      vertex 470 -964 -100
    endloop
  endfacet
  facet normal 0 -1 0
    outer loop
      vertex 470 -964 368
      vertex 514 -964 -100
      vertex 514 -964 1300
    endloop
  endfacet
  facet normal 0 -1 0
    outer loop
      vertex -470 -920 44
      vertex -279 -920 52.8
      vertex -470 -920 52.8
    endloop
  endfacet
  facet normal 0 -1 -0
    outer loop
      vertex -279 -920 52.8
      vertex -470 -920 44
      vertex -279 -920 44
    endloop
  endfacet
  facet normal 0 1 -0
    outer loop
      vertex -470 -920 52.8
      vertex -514 -920 324
      vertex -470 -920 324
    endloop
  endfacet
  facet normal 0 1 0
    outer loop
      vertex -514 -920 44
      vertex -470 -920 52.8
      vertex -470 -920 44
    endloop
  endfacet
  facet normal 0 1 0
    outer loop
      vertex -470 -920 52.8
      vertex -514 -920 44
      vertex -514 -920 324
    endloop
  endfacet
  facet normal 0 1 -0
    outer loop
      vertex -235.001 -920 52.8
      vertex -279 -920 324
      vertex -235.001 -920 324
    endloop
  endfacet
  facet normal 0 1 0
    outer loop
      vertex -279 -920 324
      vertex -235.001 -920 52.8
      vertex -279 -920 52.8
    endloop
  endfacet
  facet normal 0 1 -0
    outer loop
      vertex 21.9995 -920 52.8
      vertex -22.0005 -920 324
      vertex 21.9995 -920 324
    endloop
  endfacet
  facet normal 0 1 0
    outer loop
      vertex -22.0005 -920 324
      vertex 21.9995 -920 52.8
      vertex -22.0005 -920 52.8
    endloop
  endfacet
  facet normal 0 1 -0
    outer loop
      vertex 279 -920 52.8
      vertex 234.999 -920 324
      vertex 279 -920 324
    endloop
  endfacet
  facet normal 0 1 0
    outer loop
      vertex 234.999 -920 324
      vertex 279 -920 52.8
      vertex 234.999 -920 52.8
    endloop
  endfacet
  facet normal 0 1 0
    outer loop
      vertex 514 -920 1300
      vertex 470 -920 368
      vertex 470 -920 1300
    endloop
  endfacet
  facet normal 0 1 0
    outer loop
      vertex 279 -920 324
      vertex 470 -920 368
      vertex 470 -920 324
    endloop
  endfacet
  facet normal 0 1 -0
    outer loop
      vertex 514 -920 44
      vertex 470 -920 368
      vertex 514 -920 1300
    endloop
  endfacet
  facet normal 0 1 0
    outer loop
      vertex 470 -920 368
      vertex 514 -920 44
      vertex 470 -920 324
    endloop
  endfacet
  facet normal 0 1 0
    outer loop
      vertex 470 -920 324
      vertex 514 -920 44
      vertex 470 -920 52.8
    endloop
  endfacet
  facet normal 0 1 0
    outer loop
      vertex 470 -920 52.8
      vertex 514 -920 44
      vertex 470 -920 44
    endloop
  endfacet
  facet normal 0 1 0
    outer loop
      vertex 234.999 -920 324
      vertex 470 -920 368
      vertex 279 -920 324
    endloop
  endfacet
  facet normal 0 1 0
    outer loop
      vertex 21.9995 -920 324
      vertex 470 -920 368
      vertex 234.999 -920 324
    endloop
  endfacet
  facet normal 0 1 0
    outer loop
      vertex 470 -920 368
      vertex 21.9995 -920 324
      vertex -470 -920 368
    endloop
  endfacet
  facet normal 0 1 -0
    outer loop
      vertex -22.0005 -920 324
      vertex -470 -920 368
      vertex 21.9995 -920 324
    endloop
  endfacet
  facet normal 0 1 -0
    outer loop
      vertex -235.001 -920 324
      vertex -470 -920 368
      vertex -22.0005 -920 324
    endloop
  endfacet
  facet normal 0 1 -0
    outer loop
      vertex -279 -920 324
      vertex -470 -920 368
      vertex -235.001 -920 324
    endloop
  endfacet
  facet normal 0 1 0
    outer loop
      vertex -470 -920 368
      vertex -279 -920 324
      vertex -470 -920 324
    endloop
  endfacet
  facet normal 0 -1 0
    outer loop
      vertex 279 -920 44
      vertex 470 -920 52.8
      vertex 279 -920 52.8
    endloop
  endfacet
  facet normal 0 -1 -0
    outer loop
      vertex 470 -920 52.8
      vertex 279 -920 44
      vertex 470 -920 44
    endloop
  endfacet
  facet normal 0 1 -0
    outer loop
      vertex 470 -920 0
      vertex -470 -920 24.8
      vertex 470 -920 24.8
    endloop
  endfacet
  facet normal 0 1 0
    outer loop
      vertex -470 -920 24.8
      vertex 470 -920 0
      vertex -470 -920 0
    endloop
  endfacet
  facet normal 0 1 -0
    outer loop
      vertex 514 -920 -100
      vertex 470 -920 0
      vertex 514 -920 0
    endloop
  endfacet
  facet normal 0 1 0
    outer loop
      vertex 470 -920 0
      vertex 514 -920 -100
      vertex 470 -920 -100
    endloop
  endfacet
  facet normal 0 1 -0
    outer loop
      vertex -470 -920 368
      vertex -514 -920 1300
      vertex -470 -920 1300
    endloop
  endfacet
  facet normal 0 1 0
    outer loop
      vertex -514 -920 1300
      vertex -470 -920 368
      vertex -514 -920 368
    endloop
  endfacet
  facet normal 0 1 -0
    outer loop
      vertex -470 -920 -100
      vertex -514 -920 0
      vertex -470 -920 0
    endloop
  endfacet
  facet normal 0 1 0
    outer loop
      vertex -514 -920 0
      vertex -470 -920 -100
      vertex -514 -920 -100
    endloop
  endfacet
  facet normal 0 -1 0
    outer loop
      vertex -235.001 -920 44
      vertex -22.0005 -920 52.8
      vertex -235.001 -920 52.8
    endloop
  endfacet
  facet normal 0 -1 -0
    outer loop
      vertex -22.0005 -920 52.8
      vertex -235.001 -920 44
      vertex -22.0005 -920 44
    endloop
  endfacet
  facet normal 0 -1 0
    outer loop
      vertex 21.9995 -920 44
      vertex 234.999 -920 52.8
      vertex 21.9995 -920 52.8
    endloop
  endfacet
  facet normal 0 -1 -0
    outer loop
      vertex 234.999 -920 52.8
      vertex 21.9995 -920 44
      vertex 234.999 -920 44
    endloop
  endfacet
  facet normal -1 0 0
    outer loop
      vertex -22.0005 -964 44
      vertex -22.0005 -920 52.8
      vertex -22.0005 -920 44
    endloop
  endfacet
  facet normal -1 0 0
    outer loop
      vertex -22.0005 -964 324
      vertex -22.0005 -920 52.8
      vertex -22.0005 -964 44
    endloop
  endfacet
  facet normal -1 0 0
    outer loop
      vertex -22.0005 -920 52.8
      vertex -22.0005 -964 324
      vertex -22.0005 -920 324
    endloop
  endfacet
  facet normal 1 -0 0
    outer loop
      vertex 21.9995 -964 324
      vertex 21.9995 -920 52.8
      vertex 21.9995 -920 324
    endloop
  endfacet
  facet normal 1 0 0
    outer loop
      vertex 21.9995 -964 44
      vertex 21.9995 -920 52.8
      vertex 21.9995 -964 324
    endloop
  endfacet
  facet normal 1 0 0
    outer loop
      vertex 21.9995 -920 52.8
      vertex 21.9995 -964 44
      vertex 21.9995 -920 44
    endloop
  endfacet
  facet normal -1 0 0
    outer loop
      vertex -279 -964 44
      vertex -279 -920 52.8
      vertex -279 -920 44
    endloop
  endfacet
  facet normal -1 0 0
    outer loop
      vertex -279 -964 324
      vertex -279 -920 52.8
      vertex -279 -964 44
    endloop
  endfacet
  facet normal -1 0 0
    outer loop
      vertex -279 -920 52.8
      vertex -279 -964 324
      vertex -279 -920 324
    endloop
  endfacet
  facet normal 1 -0 0
    outer loop
      vertex -235.001 -964 324
      vertex -235.001 -920 52.8
      vertex -235.001 -920 324
    endloop
  endfacet
  facet normal 1 0 0
    outer loop
      vertex -235.001 -964 44
      vertex -235.001 -920 52.8
      vertex -235.001 -964 324
    endloop
  endfacet
  facet normal 1 0 0
    outer loop
      vertex -235.001 -920 52.8
      vertex -235.001 -964 44
      vertex -235.001 -920 44
    endloop
  endfacet
  facet normal 0 0 -1
    outer loop
      vertex -470 -964 0
      vertex 470 -920 0
      vertex 470 -964 0
    endloop
  endfacet
  facet normal -0 0 -1
    outer loop
      vertex 470 -920 0
      vertex -470 -964 0
      vertex -470 -920 0
    endloop
  endfacet
  facet normal -0 0 1
    outer loop
      vertex -470 -920 368
      vertex 470 -964 368
      vertex 470 -920 368
    endloop
  endfacet
  facet normal 0 0 1
    outer loop
      vertex 470 -964 368
      vertex -470 -920 368
      vertex -470 -964 368
    endloop
  endfacet
  facet normal -1 0 0
    outer loop
      vertex -514 -964 -100
      vertex -514 -920 0
      vertex -514 -920 -100
    endloop
  endfacet
  facet normal -1 -0 0
    outer loop
      vertex -514 -920 0
      vertex -514 -964 -100
      vertex -514 -920 44
    endloop
  endfacet
  facet normal -1 -0 0
    outer loop
      vertex -514 -920 44
      vertex -514 -964 -100
      vertex -514 -920 324
    endloop
  endfacet
  facet normal -1 -0 0
    outer loop
      vertex -514 -920 324
      vertex -514 -964 -100
      vertex -514 -920 368
    endloop
  endfacet
  facet normal -1 0 0
    outer loop
      vertex -514 -964 1300
      vertex -514 -920 368
      vertex -514 -964 -100
    endloop
  endfacet
  facet normal -1 0 0
    outer loop
      vertex -514 -920 368
      vertex -514 -964 1300
      vertex -514 -920 1300
    endloop
  endfacet
  facet normal -1 0 0
    outer loop
      vertex -514 879 324
      vertex -514 920 368
      vertex -514 920 324
    endloop
  endfacet
  facet normal -1 0 0
    outer loop
      vertex -514 835 324
      vertex -514 879 324
      vertex -514 835 44
    endloop
  endfacet
  facet normal -1 0 0
    outer loop
      vertex -514 835 324
      vertex -514 920 368
      vertex -514 879 324
    endloop
  endfacet
  facet normal -1 0 0
    outer loop
      vertex -514 622 324
      vertex -514 920 368
      vertex -514 835 324
    endloop
  endfacet
  facet normal -1 0 0
    outer loop
      vertex -514 578 324
      vertex -514 622 324
      vertex -514 578 44
    endloop
  endfacet
  facet normal -1 0 0
    outer loop
      vertex -514 578 324
      vertex -514 920 368
      vertex -514 622 324
    endloop
  endfacet
  facet normal -1 0 0
    outer loop
      vertex -514 365 324
      vertex -514 920 368
      vertex -514 578 324
    endloop
  endfacet
  facet normal -1 0 0
    outer loop
      vertex -514 321 324
      vertex -514 365 324
      vertex -514 321 44
    endloop
  endfacet
  facet normal -1 0 0
    outer loop
      vertex -514 321 324
      vertex -514 920 368
      vertex -514 365 324
    endloop
  endfacet
  facet normal -1 0 0
    outer loop
      vertex -514 108 324
      vertex -514 920 368
      vertex -514 321 324
    endloop
  endfacet
  facet normal -1 0 0
    outer loop
      vertex -514 64 324
      vertex -514 108 324
      vertex -514 64 44
    endloop
  endfacet
  facet normal -1 0 0
    outer loop
      vertex -514 64 324
      vertex -514 920 368
      vertex -514 108 324
    endloop
  endfacet
  facet normal -1 0 0
    outer loop
      vertex -514 -149 324
      vertex -514 920 368
      vertex -514 64 324
    endloop
  endfacet
  facet normal -1 0 0
    outer loop
      vertex -514 -193 324
      vertex -514 -149 324
      vertex -514 -193 44
    endloop
  endfacet
  facet normal -1 0 0
    outer loop
      vertex -514 -920 368
      vertex -514 -149 324
      vertex -514 -193 324
    endloop
  endfacet
  facet normal -1 0 0
    outer loop
      vertex -514 -920 368
      vertex -514 -193 324
      vertex -514 -406 324
    endloop
  endfacet
  facet normal -1 0 0
    outer loop
      vertex -514 -450 324
      vertex -514 -406 324
      vertex -514 -450 44
    endloop
  endfacet
  facet normal -1 0 0
    outer loop
      vertex -514 -920 368
      vertex -514 -406 324
      vertex -514 -450 324
    endloop
  endfacet
  facet normal -1 0 0
    outer loop
      vertex -514 -920 368
      vertex -514 -450 324
      vertex -514 -663 324
    endloop
  endfacet
  facet normal -1 0 0
    outer loop
      vertex -514 -707 324
      vertex -514 -663 324
      vertex -514 -707 44
    endloop
  endfacet
  facet normal -1 0 0
    outer loop
      vertex -514 -920 368
      vertex -514 -663 324
      vertex -514 -707 324
    endloop
  endfacet
  facet normal -1 0 0
    outer loop
      vertex -514 -920 368
      vertex -514 -707 324
      vertex -514 -920 324
    endloop
  endfacet
  facet normal -1 0 0
    outer loop
      vertex -514 -149 324
      vertex -514 -920 368
      vertex -514 920 368
    endloop
  endfacet
  facet normal -1 0 0
    outer loop
      vertex -514 920 0
      vertex -514 879 44
      vertex -514 920 44
    endloop
  endfacet
  facet normal -1 0 0
    outer loop
      vertex -514 879 44
      vertex -514 835 44
      vertex -514 879 324
    endloop
  endfacet
  facet normal -1 0 0
    outer loop
      vertex -514 920 0
      vertex -514 835 44
      vertex -514 879 44
    endloop
  endfacet
  facet normal -1 0 0
    outer loop
      vertex -514 920 0
      vertex -514 622 44
      vertex -514 835 44
    endloop
  endfacet
  facet normal -1 0 0
    outer loop
      vertex -514 622 44
      vertex -514 578 44
      vertex -514 622 324
    endloop
  endfacet
  facet normal -1 0 0
    outer loop
      vertex -514 920 0
      vertex -514 578 44
      vertex -514 622 44
    endloop
  endfacet
  facet normal -1 0 0
    outer loop
      vertex -514 920 0
      vertex -514 365 44
      vertex -514 578 44
    endloop
  endfacet
  facet normal -1 0 0
    outer loop
      vertex -514 365 44
      vertex -514 321 44
      vertex -514 365 324
    endloop
  endfacet
  facet normal -1 0 0
    outer loop
      vertex -514 920 0
      vertex -514 321 44
      vertex -514 365 44
    endloop
  endfacet
  facet normal -1 0 0
    outer loop
      vertex -514 920 0
      vertex -514 108 44
      vertex -514 321 44
    endloop
  endfacet
  facet normal -1 0 0
    outer loop
      vertex -514 108 44
      vertex -514 64 44
      vertex -514 108 324
    endloop
  endfacet
  facet normal -1 0 0
    outer loop
      vertex -514 920 0
      vertex -514 64 44
      vertex -514 108 44
    endloop
  endfacet
  facet normal -1 0 0
    outer loop
      vertex -514 920 0
      vertex -514 -149 44
      vertex -514 64 44
    endloop
  endfacet
  facet normal -1 0 0
    outer loop
      vertex -514 -149 44
      vertex -514 -193 44
      vertex -514 -149 324
    endloop
  endfacet
  facet normal -1 0 0
    outer loop
      vertex -514 -920 0
      vertex -514 -149 44
      vertex -514 920 0
    endloop
  endfacet
  facet normal -1 -0 0
    outer loop
      vertex -514 -149 44
      vertex -514 -920 0
      vertex -514 -193 44
    endloop
  endfacet
  facet normal -1 0 0
    outer loop
      vertex -514 -406 44
      vertex -514 -450 44
      vertex -514 -406 324
    endloop
  endfacet
  facet normal -1 -0 0
    outer loop
      vertex -514 -193 44
      vertex -514 -920 0
      vertex -514 -406 44
    endloop
  endfacet
  facet normal -1 -0 0
    outer loop
      vertex -514 -406 44
      vertex -514 -920 0
      vertex -514 -450 44
    endloop
  endfacet
  facet normal -1 0 0
    outer loop
      vertex -514 -663 44
      vertex -514 -707 44
      vertex -514 -663 324
    endloop
  endfacet
  facet normal -1 -0 0
    outer loop
      vertex -514 -450 44
      vertex -514 -920 0
      vertex -514 -663 44
    endloop
  endfacet
  facet normal -1 -0 0
    outer loop
      vertex -514 -663 44
      vertex -514 -920 0
      vertex -514 -707 44
    endloop
  endfacet
  facet normal -1 -0 0
    outer loop
      vertex -514 -707 44
      vertex -514 -920 0
      vertex -514 -920 44
    endloop
  endfacet
  facet normal -1 0 0
    outer loop
      vertex -514 920 0
      vertex -514 964 -100
      vertex -514 920 -100
    endloop
  endfacet
  facet normal -1 0 0
    outer loop
      vertex -514 920 44
      vertex -514 964 -100
      vertex -514 920 0
    endloop
  endfacet
  facet normal -1 0 0
    outer loop
      vertex -514 920 324
      vertex -514 964 -100
      vertex -514 920 44
    endloop
  endfacet
  facet normal -1 0 0
    outer loop
      vertex -514 920 368
      vertex -514 964 -100
      vertex -514 920 324
    endloop
  endfacet
  facet normal -1 0 0
    outer loop
      vertex -514 964 -100
      vertex -514 920 368
      vertex -514 964 1300
    endloop
  endfacet
  facet normal -1 -0 0
    outer loop
      vertex -514 964 1300
      vertex -514 920 368
      vertex -514 920 1300
    endloop
  endfacet
  facet normal -0 0 1
    outer loop
      vertex -514 -920 1300
      vertex -470 -964 1300
      vertex -470 -920 1300
    endloop
  endfacet
  facet normal 0 0 1
    outer loop
      vertex -470 -964 1300
      vertex -514 -920 1300
      vertex -514 -964 1300
    endloop
  endfacet
  facet normal 0 0 -1
    outer loop
      vertex -514 -964 -100
      vertex -470 -920 -100
      vertex -470 -964 -100
    endloop
  endfacet
  facet normal -0 0 -1
    outer loop
      vertex -470 -920 -100
      vertex -514 -964 -100
      vertex -514 -920 -100
    endloop
  endfacet
  facet normal 1 -0 0
    outer loop
      vertex -470 -964 1300
      vertex -470 -920 368
      vertex -470 -920 1300
    endloop
  endfacet
  facet normal 1 0 0
    outer loop
      vertex -470 -920 368
      vertex -470 -964 1300
      vertex -470 -964 368
    endloop
  endfacet
  facet normal 1 -0 0
    outer loop
      vertex -470 -964 0
      vertex -470 -920 -100
      vertex -470 -920 0
    endloop
  endfacet
  facet normal 1 0 0
    outer loop
      vertex -470 -920 -100
      vertex -470 -964 0
      vertex -470 -964 -100
    endloop
  endfacet
  facet normal 1 -0 0
    outer loop
      vertex -470 -964 324
      vertex -470 -920 52.8
      vertex -470 -920 324
    endloop
  endfacet
  facet normal 1 0 0
    outer loop
      vertex -470 -964 44
      vertex -470 -920 52.8
      vertex -470 -964 324
    endloop
  endfacet
  facet normal 1 0 0
    outer loop
      vertex -470 -920 52.8
      vertex -470 -964 44
      vertex -470 -920 44
    endloop
  endfacet
  facet normal -1 0 0
    outer loop
      vertex 470 -964 368
      vertex 470 -920 1300
      vertex 470 -920 368
    endloop
  endfacet
  facet normal -1 -0 0
    outer loop
      vertex 470 -920 1300
      vertex 470 -964 368
      vertex 470 -964 1300
    endloop
  endfacet
  facet normal -1 0 0
    outer loop
      vertex 470 -964 -100
      vertex 470 -920 0
      vertex 470 -920 -100
    endloop
  endfacet
  facet normal -1 -0 0
    outer loop
      vertex 470 -920 0
      vertex 470 -964 -100
      vertex 470 -964 0
    endloop
  endfacet
  facet normal -1 0 0
    outer loop
      vertex 470 -964 44
      vertex 470 -920 52.8
      vertex 470 -920 44
    endloop
  endfacet
  facet normal -1 0 0
    outer loop
      vertex 470 -964 324
      vertex 470 -920 52.8
      vertex 470 -964 44
    endloop
  endfacet
  facet normal -1 0 0
    outer loop
      vertex 470 -920 52.8
      vertex 470 -964 324
      vertex 470 -920 324
    endloop
  endfacet
  facet normal -0 0 1
    outer loop
      vertex 470 -920 1300
      vertex 514 -964 1300
      vertex 514 -920 1300
    endloop
  endfacet
  facet normal 0 0 1
    outer loop
      vertex 514 -964 1300
      vertex 470 -920 1300
      vertex 470 -964 1300
    endloop
  endfacet
  facet normal 0 0 -1
    outer loop
      vertex 470 -964 -100
      vertex 514 -920 -100
      vertex 514 -964 -100
    endloop
  endfacet
  facet normal -0 0 -1
    outer loop
      vertex 514 -920 -100
      vertex 470 -964 -100
      vertex 470 -920 -100
    endloop
  endfacet
  facet normal 1 -0 0
    outer loop
      vertex 514 -964 1300
      vertex 514 -920 44
      vertex 514 -920 1300
    endloop
  endfacet
  facet normal 1 0 0
    outer loop
      vertex 514 -964 -100
      vertex 514 -920 44
      vertex 514 -964 1300
    endloop
  endfacet
  facet normal 1 0 0
    outer loop
      vertex 514 -920 44
      vertex 514 -964 -100
      vertex 514 -920 0
    endloop
  endfacet
  facet normal 1 0 0
    outer loop
      vertex 514 -920 0
      vertex 514 -964 -100
      vertex 514 -920 -100
    endloop
  endfacet
  facet normal 1 -0 0
    outer loop
      vertex 514 892 44
      vertex 514 920 0
      vertex 514 920 44
    endloop
  endfacet
  facet normal 1 0 0
    outer loop
      vertex 514 848 44
      vertex 514 892 44
      vertex 514 848 324
    endloop
  endfacet
  facet normal 1 -0 0
    outer loop
      vertex 514 848 44
      vertex 514 920 0
      vertex 514 892 44
    endloop
  endfacet
  facet normal 1 -0 0
    outer loop
      vertex 514 635 44
      vertex 514 920 0
      vertex 514 848 44
    endloop
  endfacet
  facet normal 1 0 0
    outer loop
      vertex 514 591 44
      vertex 514 635 44
      vertex 514 591 324
    endloop
  endfacet
  facet normal 1 -0 0
    outer loop
      vertex 514 591 44
      vertex 514 920 0
      vertex 514 635 44
    endloop
  endfacet
  facet normal 1 -0 0
    outer loop
      vertex 514 378 44
      vertex 514 920 0
      vertex 514 591 44
    endloop
  endfacet
  facet normal 1 0 0
    outer loop
      vertex 514 334 44
      vertex 514 378 44
      vertex 514 334 324
    endloop
  endfacet
  facet normal 1 -0 0
    outer loop
      vertex 514 334 44
      vertex 514 920 0
      vertex 514 378 44
    endloop
  endfacet
  facet normal 1 -0 0
    outer loop
      vertex 514 121 44
      vertex 514 920 0
      vertex 514 334 44
    endloop
  endfacet
  facet normal 1 0 0
    outer loop
      vertex 514 77 44
      vertex 514 121 44
      vertex 514 77 324
    endloop
  endfacet
  facet normal 1 -0 0
    outer loop
      vertex 514 77 44
      vertex 514 920 0
      vertex 514 121 44
    endloop
  endfacet
  facet normal 1 -0 0
    outer loop
      vertex 514 -136 44
      vertex 514 920 0
      vertex 514 77 44
    endloop
  endfacet
  facet normal 1 0 0
    outer loop
      vertex 514 -136 324
      vertex 514 -180 44
      vertex 514 -136 44
    endloop
  endfacet
  facet normal 1 0 0
    outer loop
      vertex 514 -920 0
      vertex 514 -136 44
      vertex 514 -180 44
    endloop
  endfacet
  facet normal 1 0 0
    outer loop
      vertex 514 -920 0
      vertex 514 -180 44
      vertex 514 -920 44
    endloop
  endfacet
  facet normal 1 0 0
    outer loop
      vertex 514 -136 44
      vertex 514 -920 0
      vertex 514 920 0
    endloop
  endfacet
  facet normal 1 0 0
    outer loop
      vertex 514 920 368
      vertex 514 892 324
      vertex 514 920 324
    endloop
  endfacet
  facet normal 1 0 0
    outer loop
      vertex 514 892 324
      vertex 514 848 324
      vertex 514 892 44
    endloop
  endfacet
  facet normal 1 0 0
    outer loop
      vertex 514 920 368
      vertex 514 848 324
      vertex 514 892 324
    endloop
  endfacet
  facet normal 1 0 0
    outer loop
      vertex 514 920 368
      vertex 514 635 324
      vertex 514 848 324
    endloop
  endfacet
  facet normal 1 0 0
    outer loop
      vertex 514 635 324
      vertex 514 591 324
      vertex 514 635 44
    endloop
  endfacet
  facet normal 1 0 0
    outer loop
      vertex 514 920 368
      vertex 514 591 324
      vertex 514 635 324
    endloop
  endfacet
  facet normal 1 0 0
    outer loop
      vertex 514 920 368
      vertex 514 378 324
      vertex 514 591 324
    endloop
  endfacet
  facet normal 1 0 0
    outer loop
      vertex 514 378 324
      vertex 514 334 324
      vertex 514 378 44
    endloop
  endfacet
  facet normal 1 0 0
    outer loop
      vertex 514 920 368
      vertex 514 334 324
      vertex 514 378 324
    endloop
  endfacet
  facet normal 1 -0 0
    outer loop
      vertex 514 -180 368
      vertex 514 334 324
      vertex 514 920 368
    endloop
  endfacet
  facet normal 1 0 0
    outer loop
      vertex 514 121 324
      vertex 514 77 324
      vertex 514 121 44
    endloop
  endfacet
  facet normal 1 0 0
    outer loop
      vertex 514 334 324
      vertex 514 -180 368
      vertex 514 121 324
    endloop
  endfacet
  facet normal 1 0 0
    outer loop
      vertex 514 121 324
      vertex 514 -180 368
      vertex 514 77 324
    endloop
  endfacet
  facet normal 1 0 0
    outer loop
      vertex 514 -180 44
      vertex 514 -136 324
      vertex 514 -180 368
    endloop
  endfacet
  facet normal 1 0 0
    outer loop
      vertex 514 77 324
      vertex 514 -180 368
      vertex 514 -136 324
    endloop
  endfacet
  facet normal 1 0 0
    outer loop
      vertex 514 920 368
      vertex 514 964 1300
      vertex 514 920 1300
    endloop
  endfacet
  facet normal 1 0 0
    outer loop
      vertex 514 964 1300
      vertex 514 920 368
      vertex 514 964 -100
    endloop
  endfacet
  facet normal 1 -0 0
    outer loop
      vertex 514 920 324
      vertex 514 964 -100
      vertex 514 920 368
    endloop
  endfacet
  facet normal 1 -0 0
    outer loop
      vertex 514 920 44
      vertex 514 964 -100
      vertex 514 920 324
    endloop
  endfacet
  facet normal 1 -0 0
    outer loop
      vertex 514 920 0
      vertex 514 964 -100
      vertex 514 920 44
    endloop
  endfacet
  facet normal 1 0 0
    outer loop
      vertex 514 964 -100
      vertex 514 920 0
      vertex 514 920 -100
    endloop
  endfacet
  facet normal -1 0 0
    outer loop
      vertex -420 -915 17
      vertex -420 -905 24.8
      vertex -420 -905 17
    endloop
  endfacet
  facet normal -1 -0 0
    outer loop
      vertex -420 -905 24.8
      vertex -420 -915 17
      vertex -420 -915 24.8
    endloop
  endfacet
  facet normal 0 0 -1
    outer loop
      vertex -420 -915 17
      vertex 420 -905 17
      vertex 420 -915 17
    endloop
  endfacet
  facet normal -0 0 -1
    outer loop
      vertex 420 -905 17
      vertex -420 -915 17
      vertex -420 -905 17
    endloop
  endfacet
  facet normal 1 -0 0
    outer loop
      vertex 420 -915 24.8
      vertex 420 -905 17
      vertex 420 -905 24.8
    endloop
  endfacet
  facet normal 1 0 0
    outer loop
      vertex 420 -905 17
      vertex 420 -915 24.8
      vertex 420 -915 17
    endloop
  endfacet
  facet normal 0 -1 0
    outer loop
      vertex -420 -915 17
      vertex 420 -915 24.8
      vertex -420 -915 24.8
    endloop
  endfacet
  facet normal 0 -1 -0
    outer loop
      vertex 420 -915 24.8
      vertex -420 -915 17
      vertex 420 -915 17
    endloop
  endfacet
  facet normal 0 1 -0
    outer loop
      vertex 420 -905 17
      vertex -420 -905 24.8
      vertex 420 -905 24.8
    endloop
  endfacet
  facet normal 0 1 0
    outer loop
      vertex -420 -905 24.8
      vertex 420 -905 17
      vertex -420 -905 17
    endloop
  endfacet
  facet normal 1 0 0
    outer loop
      vertex -234.999 920 52.8
      vertex -234.999 964 324
      vertex -234.999 920 324
    endloop
  endfacet
  facet normal 1 0 0
    outer loop
      vertex -234.999 964 324
      vertex -234.999 920 52.8
      vertex -234.999 964 44
    endloop
  endfacet
  facet normal 1 0 0
    outer loop
      vertex -234.999 964 44
      vertex -234.999 920 52.8
      vertex -234.999 920 44
    endloop
  endfacet
  facet normal 0 0 -1
    outer loop
      vertex 22.0005 920 324
      vertex 235.001 964 324
      vertex 235.001 920 324
    endloop
  endfacet
  facet normal -0 0 -1
    outer loop
      vertex 235.001 964 324
      vertex 22.0005 920 324
      vertex 22.0005 964 324
    endloop
  endfacet
  facet normal 0 0 -1
    outer loop
      vertex 279 920 324
      vertex 470 964 324
      vertex 470 920 324
    endloop
  endfacet
  facet normal -0 0 -1
    outer loop
      vertex 470 964 324
      vertex 279 920 324
      vertex 279 964 324
    endloop
  endfacet
  facet normal 0 0 -1
    outer loop
      vertex -234.999 920 324
      vertex -21.9995 964 324
      vertex -21.9995 920 324
    endloop
  endfacet
  facet normal -0 0 -1
    outer loop
      vertex -21.9995 964 324
      vertex -234.999 920 324
      vertex -234.999 964 324
    endloop
  endfacet
  facet normal 0 0 -1
    outer loop
      vertex -470 920 324
      vertex -279 964 324
      vertex -279 920 324
    endloop
  endfacet
  facet normal -0 0 -1
    outer loop
      vertex -279 964 324
      vertex -470 920 324
      vertex -470 964 324
    endloop
  endfacet
  facet normal -0 0 1
    outer loop
      vertex 279 964 44
      vertex 470 920 44
      vertex 470 964 44
    endloop
  endfacet
  facet normal 0 0 1
    outer loop
      vertex 470 920 44
      vertex 279 964 44
      vertex 279 920 44
    endloop
  endfacet
  facet normal -0 0 1
    outer loop
      vertex 22.0005 964 44
      vertex 235.001 920 44
      vertex 235.001 964 44
    endloop
  endfacet
  facet normal 0 0 1
    outer loop
      vertex 235.001 920 44
      vertex 22.0005 964 44
      vertex 22.0005 920 44
    endloop
  endfacet
  facet normal -0 0 1
    outer loop
      vertex -234.999 964 44
      vertex -21.9995 920 44
      vertex -21.9995 964 44
    endloop
  endfacet
  facet normal 0 0 1
    outer loop
      vertex -21.9995 920 44
      vertex -234.999 964 44
      vertex -234.999 920 44
    endloop
  endfacet
  facet normal -0 0 1
    outer loop
      vertex -470 964 44
      vertex -279 920 44
      vertex -279 964 44
    endloop
  endfacet
  facet normal 0 0 1
    outer loop
      vertex -279 920 44
      vertex -470 964 44
      vertex -470 920 44
    endloop
  endfacet
  facet normal -1 0 0
    outer loop
      vertex -279 920 52.8
      vertex -279 964 44
      vertex -279 920 44
    endloop
  endfacet
  facet normal -1 0 0
    outer loop
      vertex -279 964 44
      vertex -279 920 52.8
      vertex -279 964 324
    endloop
  endfacet
  facet normal -1 -0 0
    outer loop
      vertex -279 964 324
      vertex -279 920 52.8
      vertex -279 920 324
    endloop
  endfacet
  facet normal 0 1 -0
    outer loop
      vertex -234.999 964 44
      vertex -279 964 324
      vertex -234.999 964 324
    endloop
  endfacet
  facet normal 0 1 0
    outer loop
      vertex -279 964 324
      vertex -234.999 964 44
      vertex -279 964 44
    endloop
  endfacet
  facet normal 0 1 -0
    outer loop
      vertex 22.0005 964 44
      vertex -21.9995 964 324
      vertex 22.0005 964 324
    endloop
  endfacet
  facet normal 0 1 0
    outer loop
      vertex -21.9995 964 324
      vertex 22.0005 964 44
      vertex -21.9995 964 44
    endloop
  endfacet
  facet normal 0 1 -0
    outer loop
      vertex 279 964 44
      vertex 235.001 964 324
      vertex 279 964 324
    endloop
  endfacet
  facet normal 0 1 0
    outer loop
      vertex 235.001 964 324
      vertex 279 964 44
      vertex 235.001 964 44
    endloop
  endfacet
  facet normal 0 1 0
    outer loop
      vertex 514 964 1300
      vertex 470 964 368
      vertex 470 964 1300
    endloop
  endfacet
  facet normal 0 1 0
    outer loop
      vertex 279 964 324
      vertex 470 964 368
      vertex 470 964 324
    endloop
  endfacet
  facet normal 0 1 -0
    outer loop
      vertex 514 964 -100
      vertex 470 964 368
      vertex 514 964 1300
    endloop
  endfacet
  facet normal 0 1 0
    outer loop
      vertex 470 964 368
      vertex 514 964 -100
      vertex 470 964 324
    endloop
  endfacet
  facet normal 0 1 -0
    outer loop
      vertex 470 964 0
      vertex 279 964 44
      vertex 470 964 44
    endloop
  endfacet
  facet normal 0 1 0
    outer loop
      vertex 279 964 44
      vertex 470 964 0
      vertex 235.001 964 44
    endloop
  endfacet
  facet normal 0 1 0
    outer loop
      vertex 235.001 964 44
      vertex 470 964 0
      vertex 22.0005 964 44
    endloop
  endfacet
  facet normal 0 1 0
    outer loop
      vertex 22.0005 964 44
      vertex 470 964 0
      vertex -21.9995 964 44
    endloop
  endfacet
  facet normal 0 1 0
    outer loop
      vertex -470 964 0
      vertex -21.9995 964 44
      vertex 470 964 0
    endloop
  endfacet
  facet normal 0 1 0
    outer loop
      vertex -21.9995 964 44
      vertex -470 964 0
      vertex -234.999 964 44
    endloop
  endfacet
  facet normal 0 1 0
    outer loop
      vertex -234.999 964 44
      vertex -470 964 0
      vertex -279 964 44
    endloop
  endfacet
  facet normal 0 1 0
    outer loop
      vertex 470 964 324
      vertex 514 964 -100
      vertex 470 964 44
    endloop
  endfacet
  facet normal 0 1 0
    outer loop
      vertex 470 964 44
      vertex 514 964 -100
      vertex 470 964 0
    endloop
  endfacet
  facet normal 0 1 0
    outer loop
      vertex 470 964 0
      vertex 514 964 -100
      vertex 470 964 -100
    endloop
  endfacet
  facet normal 0 1 -0
    outer loop
      vertex -470 964 368
      vertex -514 964 1300
      vertex -470 964 1300
    endloop
  endfacet
  facet normal 0 1 0
    outer loop
      vertex 235.001 964 324
      vertex 470 964 368
      vertex 279 964 324
    endloop
  endfacet
  facet normal 0 1 0
    outer loop
      vertex 22.0005 964 324
      vertex 470 964 368
      vertex 235.001 964 324
    endloop
  endfacet
  facet normal 0 1 0
    outer loop
      vertex 470 964 368
      vertex 22.0005 964 324
      vertex -470 964 368
    endloop
  endfacet
  facet normal 0 1 -0
    outer loop
      vertex -21.9995 964 324
      vertex -470 964 368
      vertex 22.0005 964 324
    endloop
  endfacet
  facet normal 0 1 -0
    outer loop
      vertex -234.999 964 324
      vertex -470 964 368
      vertex -21.9995 964 324
    endloop
  endfacet
  facet normal 0 1 -0
    outer loop
      vertex -279 964 324
      vertex -470 964 368
      vertex -234.999 964 324
    endloop
  endfacet
  facet normal 0 1 0
    outer loop
      vertex -470 964 324
      vertex -470 964 368
      vertex -279 964 324
    endloop
  endfacet
  facet normal 0 1 0
    outer loop
      vertex -514 964 -100
      vertex -470 964 368
      vertex -470 964 324
    endloop
  endfacet
  facet normal 0 1 0
    outer loop
      vertex -514 964 -100
      vertex -470 964 324
      vertex -470 964 44
    endloop
  endfacet
  facet normal 0 1 0
    outer loop
      vertex -279 964 44
      vertex -470 964 0
      vertex -470 964 44
    endloop
  endfacet
  facet normal 0 1 0
    outer loop
      vertex -514 964 -100
      vertex -470 964 44
      vertex -470 964 0
    endloop
  endfacet
  facet normal 0 1 0
    outer loop
      vertex -514 964 -100
      vertex -470 964 0
      vertex -470 964 -100
    endloop
  endfacet
  facet normal 0 1 0
    outer loop
      vertex -470 964 368
      vertex -514 964 -100
      vertex -514 964 1300
    endloop
  endfacet
  facet normal 0 1 -0
    outer loop
      vertex -279 920 44
      vertex -470 920 52.8
      vertex -279 920 52.8
    endloop
  endfacet
  facet normal 0 1 0
    outer loop
      vertex -470 920 52.8
      vertex -279 920 44
      vertex -470 920 44
    endloop
  endfacet
  facet normal 0 -1 0
    outer loop
      vertex -514 920 324
      vertex -470 920 52.8
      vertex -470 920 324
    endloop
  endfacet
  facet normal 0 -1 0
    outer loop
      vertex -514 920 44
      vertex -470 920 52.8
      vertex -514 920 324
    endloop
  endfacet
  facet normal 0 -1 -0
    outer loop
      vertex -470 920 52.8
      vertex -514 920 44
      vertex -470 920 44
    endloop
  endfacet
  facet normal 0 -1 0
    outer loop
      vertex 470 920 52.8
      vertex 514 920 324
      vertex 470 920 324
    endloop
  endfacet
  facet normal 0 -1 0
    outer loop
      vertex 514 920 44
      vertex 470 920 52.8
      vertex 470 920 44
    endloop
  endfacet
  facet normal 0 -1 0
    outer loop
      vertex 470 920 52.8
      vertex 514 920 44
      vertex 514 920 324
    endloop
  endfacet
  facet normal 0 1 -0
    outer loop
      vertex 470 920 44
      vertex 279 920 52.8
      vertex 470 920 52.8
    endloop
  endfacet
  facet normal 0 1 0
    outer loop
      vertex 279 920 52.8
      vertex 470 920 44
      vertex 279 920 44
    endloop
  endfacet
  facet normal 0 -1 0
    outer loop
      vertex -470 920 0
      vertex 470 920 24.8
      vertex -470 920 24.8
    endloop
  endfacet
  facet normal 0 -1 -0
    outer loop
      vertex 470 920 24.8
      vertex -470 920 0
      vertex 470 920 0
    endloop
  endfacet
  facet normal 0 -1 0
    outer loop
      vertex 470 920 368
      vertex 514 920 1300
      vertex 470 920 1300
    endloop
  endfacet
  facet normal 0 -1 -0
    outer loop
      vertex 514 920 1300
      vertex 470 920 368
      vertex 514 920 368
    endloop
  endfacet
  facet normal 0 -1 0
    outer loop
      vertex 235.001 920 52.8
      vertex 279 920 324
      vertex 235.001 920 324
    endloop
  endfacet
  facet normal 0 -1 -0
    outer loop
      vertex 279 920 324
      vertex 235.001 920 52.8
      vertex 279 920 52.8
    endloop
  endfacet
  facet normal 0 -1 0
    outer loop
      vertex -21.9995 920 52.8
      vertex 22.0005 920 324
      vertex -21.9995 920 324
    endloop
  endfacet
  facet normal 0 -1 -0
    outer loop
      vertex 22.0005 920 324
      vertex -21.9995 920 52.8
      vertex 22.0005 920 52.8
    endloop
  endfacet
  facet normal 0 -1 0
    outer loop
      vertex -279 920 52.8
      vertex -234.999 920 324
      vertex -279 920 324
    endloop
  endfacet
  facet normal 0 -1 -0
    outer loop
      vertex -234.999 920 324
      vertex -279 920 52.8
      vertex -234.999 920 52.8
    endloop
  endfacet
  facet normal 0 -1 0
    outer loop
      vertex -279 920 324
      vertex -470 920 368
      vertex -470 920 324
    endloop
  endfacet
  facet normal 0 -1 0
    outer loop
      vertex -234.999 920 324
      vertex -470 920 368
      vertex -279 920 324
    endloop
  endfacet
  facet normal 0 -1 0
    outer loop
      vertex -21.9995 920 324
      vertex -470 920 368
      vertex -234.999 920 324
    endloop
  endfacet
  facet normal 0 -1 0
    outer loop
      vertex -470 920 368
      vertex -21.9995 920 324
      vertex 470 920 368
    endloop
  endfacet
  facet normal 0 -1 0
    outer loop
      vertex 22.0005 920 324
      vertex 470 920 368
      vertex -21.9995 920 324
    endloop
  endfacet
  facet normal 0 -1 0
    outer loop
      vertex 235.001 920 324
      vertex 470 920 368
      vertex 22.0005 920 324
    endloop
  endfacet
  facet normal 0 -1 0
    outer loop
      vertex 279 920 324
      vertex 470 920 368
      vertex 235.001 920 324
    endloop
  endfacet
  facet normal 0 -1 -0
    outer loop
      vertex 470 920 368
      vertex 279 920 324
      vertex 470 920 324
    endloop
  endfacet
  facet normal 0 -1 0
    outer loop
      vertex 470 920 -100
      vertex 514 920 0
      vertex 470 920 0
    endloop
  endfacet
  facet normal 0 -1 -0
    outer loop
      vertex 514 920 0
      vertex 470 920 -100
      vertex 514 920 -100
    endloop
  endfacet
  facet normal 0 -1 0
    outer loop
      vertex -514 920 368
      vertex -470 920 1300
      vertex -514 920 1300
    endloop
  endfacet
  facet normal 0 -1 -0
    outer loop
      vertex -470 920 1300
      vertex -514 920 368
      vertex -470 920 368
    endloop
  endfacet
  facet normal 0 -1 0
    outer loop
      vertex -514 920 -100
      vertex -470 920 0
      vertex -514 920 0
    endloop
  endfacet
  facet normal 0 -1 -0
    outer loop
      vertex -470 920 0
      vertex -514 920 -100
      vertex -470 920 -100
    endloop
  endfacet
  facet normal 0 1 -0
    outer loop
      vertex 235.001 920 44
      vertex 22.0005 920 52.8
      vertex 235.001 920 52.8
    endloop
  endfacet
  facet normal 0 1 0
    outer loop
      vertex 22.0005 920 52.8
      vertex 235.001 920 44
      vertex 22.0005 920 44
    endloop
  endfacet
  facet normal 0 1 -0
    outer loop
      vertex -21.9995 920 44
      vertex -234.999 920 52.8
      vertex -21.9995 920 52.8
    endloop
  endfacet
  facet normal 0 1 0
    outer loop
      vertex -234.999 920 52.8
      vertex -21.9995 920 44
      vertex -234.999 920 44
    endloop
  endfacet
  facet normal 1 0 0
    outer loop
      vertex 22.0005 920 52.8
      vertex 22.0005 964 324
      vertex 22.0005 920 324
    endloop
  endfacet
  facet normal 1 0 0
    outer loop
      vertex 22.0005 964 324
      vertex 22.0005 920 52.8
      vertex 22.0005 964 44
    endloop
  endfacet
  facet normal 1 0 0
    outer loop
      vertex 22.0005 964 44
      vertex 22.0005 920 52.8
      vertex 22.0005 920 44
    endloop
  endfacet
  facet normal -1 0 0
    outer loop
      vertex -21.9995 920 52.8
      vertex -21.9995 964 44
      vertex -21.9995 920 44
    endloop
  endfacet
  facet normal -1 0 0
    outer loop
      vertex -21.9995 964 44
      vertex -21.9995 920 52.8
      vertex -21.9995 964 324
    endloop
  endfacet
  facet normal -1 -0 0
    outer loop
      vertex -21.9995 964 324
      vertex -21.9995 920 52.8
      vertex -21.9995 920 324
    endloop
  endfacet
  facet normal 1 0 0
    outer loop
      vertex 279 920 52.8
      vertex 279 964 324
      vertex 279 920 324
    endloop
  endfacet
  facet normal 1 0 0
    outer loop
      vertex 279 964 324
      vertex 279 920 52.8
      vertex 279 964 44
    endloop
  endfacet
  facet normal 1 0 0
    outer loop
      vertex 279 964 44
      vertex 279 920 52.8
      vertex 279 920 44
    endloop
  endfacet
  facet normal -1 0 0
    outer loop
      vertex 235.001 920 52.8
      vertex 235.001 964 44
      vertex 235.001 920 44
    endloop
  endfacet
  facet normal -1 0 0
    outer loop
      vertex 235.001 964 44
      vertex 235.001 920 52.8
      vertex 235.001 964 324
    endloop
  endfacet
  facet normal -1 -0 0
    outer loop
      vertex 235.001 964 324
      vertex 235.001 920 52.8
      vertex 235.001 920 324
    endloop
  endfacet
  facet normal 0 0 -1
    outer loop
      vertex -470 920 0
      vertex 470 964 0
      vertex 470 920 0
    endloop
  endfacet
  facet normal -0 0 -1
    outer loop
      vertex 470 964 0
      vertex -470 920 0
      vertex -470 964 0
    endloop
  endfacet
  facet normal -0 0 1
    outer loop
      vertex -470 964 368
      vertex 470 920 368
      vertex 470 964 368
    endloop
  endfacet
  facet normal 0 0 1
    outer loop
      vertex 470 920 368
      vertex -470 964 368
      vertex -470 920 368
    endloop
  endfacet
  facet normal -0 0 1
    outer loop
      vertex 470 964 1300
      vertex 514 920 1300
      vertex 514 964 1300
    endloop
  endfacet
  facet normal 0 0 1
    outer loop
      vertex 514 920 1300
      vertex 470 964 1300
      vertex 470 920 1300
    endloop
  endfacet
  facet normal 0 0 -1
    outer loop
      vertex 470 920 -100
      vertex 514 964 -100
      vertex 514 920 -100
    endloop
  endfacet
  facet normal -0 0 -1
    outer loop
      vertex 514 964 -100
      vertex 470 920 -100
      vertex 470 964 -100
    endloop
  endfacet
  facet normal -1 0 0
    outer loop
      vertex 470 920 368
      vertex 470 964 1300
      vertex 470 964 368
    endloop
  endfacet
  facet normal -1 -0 0
    outer loop
      vertex 470 964 1300
      vertex 470 920 368
      vertex 470 920 1300
    endloop
  endfacet
  facet normal -1 0 0
    outer loop
      vertex 470 920 -100
      vertex 470 964 0
      vertex 470 964 -100
    endloop
  endfacet
  facet normal -1 -0 0
    outer loop
      vertex 470 964 0
      vertex 470 920 -100
      vertex 470 920 0
    endloop
  endfacet
  facet normal -1 0 0
    outer loop
      vertex 470 920 52.8
      vertex 470 964 44
      vertex 470 920 44
    endloop
  endfacet
  facet normal -1 0 0
    outer loop
      vertex 470 964 44
      vertex 470 920 52.8
      vertex 470 964 324
    endloop
  endfacet
  facet normal -1 -0 0
    outer loop
      vertex 470 964 324
      vertex 470 920 52.8
      vertex 470 920 324
    endloop
  endfacet
  facet normal 1 -0 0
    outer loop
      vertex -470 920 1300
      vertex -470 964 368
      vertex -470 964 1300
    endloop
  endfacet
  facet normal 1 0 0
    outer loop
      vertex -470 964 368
      vertex -470 920 1300
      vertex -470 920 368
    endloop
  endfacet
  facet normal 1 -0 0
    outer loop
      vertex -470 920 0
      vertex -470 964 -100
      vertex -470 964 0
    endloop
  endfacet
  facet normal 1 0 0
    outer loop
      vertex -470 964 -100
      vertex -470 920 0
      vertex -470 920 -100
    endloop
  endfacet
  facet normal 1 0 0
    outer loop
      vertex -470 920 52.8
      vertex -470 964 324
      vertex -470 920 324
    endloop
  endfacet
  facet normal 1 0 0
    outer loop
      vertex -470 964 324
      vertex -470 920 52.8
      vertex -470 964 44
    endloop
  endfacet
  facet normal 1 0 0
    outer loop
      vertex -470 964 44
      vertex -470 920 52.8
      vertex -470 920 44
    endloop
  endfacet
  facet normal -0 0 1
    outer loop
      vertex -514 964 1300
      vertex -470 920 1300
      vertex -470 964 1300
    endloop
  endfacet
  facet normal 0 0 1
    outer loop
      vertex -470 920 1300
      vertex -514 964 1300
      vertex -514 920 1300
    endloop
  endfacet
  facet normal 0 0 -1
    outer loop
      vertex -514 920 -100
      vertex -470 964 -100
      vertex -470 920 -100
    endloop
  endfacet
  facet normal -0 0 -1
    outer loop
      vertex -470 964 -100
      vertex -514 920 -100
      vertex -514 964 -100
    endloop
  endfacet
  facet normal 1 -0 0
    outer loop
      vertex 420 905 24.8
      vertex 420 915 17
      vertex 420 915 24.8
    endloop
  endfacet
  facet normal 1 0 0
    outer loop
      vertex 420 915 17
      vertex 420 905 24.8
      vertex 420 905 17
    endloop
  endfacet
  facet normal 0 0 -1
    outer loop
      vertex -420 905 17
      vertex 420 915 17
      vertex 420 905 17
    endloop
  endfacet
  facet normal -0 0 -1
    outer loop
      vertex 420 915 17
      vertex -420 905 17
      vertex -420 915 17
    endloop
  endfacet
  facet normal -1 0 0
    outer loop
      vertex -420 905 17
      vertex -420 915 24.8
      vertex -420 915 17
    endloop
  endfacet
  facet normal -1 -0 0
    outer loop
      vertex -420 915 24.8
      vertex -420 905 17
      vertex -420 905 24.8
    endloop
  endfacet
  facet normal 0 1 -0
    outer loop
      vertex 420 915 17
      vertex -420 915 24.8
      vertex 420 915 24.8
    endloop
  endfacet
  facet normal 0 1 0
    outer loop
      vertex -420 915 24.8
      vertex 420 915 17
      vertex -420 915 17
    endloop
  endfacet
  facet normal 0 -1 0
    outer loop
      vertex -420 905 17
      vertex 420 905 24.8
      vertex -420 905 24.8
    endloop
  endfacet
  facet normal 0 -1 -0
    outer loop
      vertex 420 905 24.8
      vertex -420 905 17
      vertex 420 905 17
    endloop
  endfacet
  facet normal -1 0 0
    outer loop
      vertex -470 879 44
      vertex -470 920 52.8
      vertex -470 920 44
    endloop
  endfacet
  facet normal -1 -0 0
    outer loop
      vertex -470 920 52.8
      vertex -470 879 44
      vertex -470 879 52.8
    endloop
  endfacet
  facet normal -1 0 0
    outer loop
      vertex -470 -920 44
      vertex -470 -707 52.8
      vertex -470 -707 44
    endloop
  endfacet
  facet normal -1 -0 0
    outer loop
      vertex -470 -707 52.8
      vertex -470 -920 44
      vertex -470 -920 52.8
    endloop
  endfacet
  facet normal 1 0 0
    outer loop
      vertex -470 870 13.8
      vertex -470 920 24.8
      vertex -470 870 23.8
    endloop
  endfacet
  facet normal 1 0 0
    outer loop
      vertex -470 920 24.8
      vertex -470 -870 23.8
      vertex -470 870 23.8
    endloop
  endfacet
  facet normal 1 0 0
    outer loop
      vertex -470 -870 23.8
      vertex -470 -920 24.8
      vertex -470 -870 13.8
    endloop
  endfacet
  facet normal 1 -0 0
    outer loop
      vertex -470 -920 24.8
      vertex -470 -870 23.8
      vertex -470 920 24.8
    endloop
  endfacet
  facet normal 1 0 0
    outer loop
      vertex -470 920 24.8
      vertex -470 870 13.8
      vertex -470 920 0
    endloop
  endfacet
  facet normal 1 -0 0
    outer loop
      vertex -470 -870 13.8
      vertex -470 920 0
      vertex -470 870 13.8
    endloop
  endfacet
  facet normal 1 0 0
    outer loop
      vertex -470 -870 13.8
      vertex -470 -920 0
      vertex -470 920 0
    endloop
  endfacet
  facet normal 1 0 0
    outer loop
      vertex -470 -920 0
      vertex -470 -870 13.8
      vertex -470 -920 24.8
    endloop
  endfacet
  facet normal 1 0 0
    outer loop
      vertex -470 920 368
      vertex -470 879 324
      vertex -470 920 324
    endloop
  endfacet
  facet normal 1 0 0
    outer loop
      vertex -470 879 324
      vertex -470 835 324
      vertex -470 879 52.8
    endloop
  endfacet
  facet normal 1 0 0
    outer loop
      vertex -470 920 368
      vertex -470 835 324
      vertex -470 879 324
    endloop
  endfacet
  facet normal 1 0 0
    outer loop
      vertex -470 920 368
      vertex -470 622 324
      vertex -470 835 324
    endloop
  endfacet
  facet normal 1 0 0
    outer loop
      vertex -470 622 324
      vertex -470 578 324
      vertex -470 622 52.8
    endloop
  endfacet
  facet normal 1 0 0
    outer loop
      vertex -470 920 368
      vertex -470 578 324
      vertex -470 622 324
    endloop
  endfacet
  facet normal 1 0 0
    outer loop
      vertex -470 920 368
      vertex -470 365 324
      vertex -470 578 324
    endloop
  endfacet
  facet normal 1 0 0
    outer loop
      vertex -470 365 324
      vertex -470 321 324
      vertex -470 365 52.8
    endloop
  endfacet
  facet normal 1 0 0
    outer loop
      vertex -470 920 368
      vertex -470 321 324
      vertex -470 365 324
    endloop
  endfacet
  facet normal 1 0 0
    outer loop
      vertex -470 920 368
      vertex -470 108 324
      vertex -470 321 324
    endloop
  endfacet
  facet normal 1 0 0
    outer loop
      vertex -470 108 324
      vertex -470 64 324
      vertex -470 108 52.8
    endloop
  endfacet
  facet normal 1 0 0
    outer loop
      vertex -470 920 368
      vertex -470 64 324
      vertex -470 108 324
    endloop
  endfacet
  facet normal 1 0 0
    outer loop
      vertex -470 920 368
      vertex -470 -149 324
      vertex -470 64 324
    endloop
  endfacet
  facet normal 1 0 0
    outer loop
      vertex -470 -149 324
      vertex -470 -193 324
      vertex -470 -149 52.8
    endloop
  endfacet
  facet normal 1 -0 0
    outer loop
      vertex -470 -920 368
      vertex -470 -149 324
      vertex -470 920 368
    endloop
  endfacet
  facet normal 1 0 0
    outer loop
      vertex -470 -149 324
      vertex -470 -920 368
      vertex -470 -193 324
    endloop
  endfacet
  facet normal 1 0 0
    outer loop
      vertex -470 -406 324
      vertex -470 -450 324
      vertex -470 -406 52.8
    endloop
  endfacet
  facet normal 1 0 0
    outer loop
      vertex -470 -193 324
      vertex -470 -920 368
      vertex -470 -406 324
    endloop
  endfacet
  facet normal 1 0 0
    outer loop
      vertex -470 -406 324
      vertex -470 -920 368
      vertex -470 -450 324
    endloop
  endfacet
  facet normal 1 0 0
    outer loop
      vertex -470 -663 324
      vertex -470 -707 324
      vertex -470 -663 52.8
    endloop
  endfacet
  facet normal 1 0 0
    outer loop
      vertex -470 -450 324
      vertex -470 -920 368
      vertex -470 -663 324
    endloop
  endfacet
  facet normal 1 0 0
    outer loop
      vertex -470 -663 324
      vertex -470 -920 368
      vertex -470 -707 324
    endloop
  endfacet
  facet normal 1 0 0
    outer loop
      vertex -470 -707 324
      vertex -470 -920 368
      vertex -470 -920 324
    endloop
  endfacet
  facet normal 1 0 0
    outer loop
      vertex -470 879 52.8
      vertex -470 835 324
      vertex -470 835 52.8
    endloop
  endfacet
  facet normal 1 0 0
    outer loop
      vertex -470 622 52.8
      vertex -470 578 324
      vertex -470 578 52.8
    endloop
  endfacet
  facet normal 1 0 0
    outer loop
      vertex -470 365 52.8
      vertex -470 321 324
      vertex -470 321 52.8
    endloop
  endfacet
  facet normal 1 0 0
    outer loop
      vertex -470 108 52.8
      vertex -470 64 324
      vertex -470 64 52.8
    endloop
  endfacet
  facet normal 1 0 0
    outer loop
      vertex -470 -149 52.8
      vertex -470 -193 324
      vertex -470 -193 52.8
    endloop
  endfacet
  facet normal 1 0 0
    outer loop
      vertex -470 -406 52.8
      vertex -470 -450 324
      vertex -470 -450 52.8
    endloop
  endfacet
  facet normal 1 0 0
    outer loop
      vertex -470 -663 52.8
      vertex -470 -707 324
      vertex -470 -707 52.8
    endloop
  endfacet
  facet normal -1 0 0
    outer loop
      vertex -470 622 44
      vertex -470 835 52.8
      vertex -470 835 44
    endloop
  endfacet
  facet normal -1 -0 0
    outer loop
      vertex -470 835 52.8
      vertex -470 622 44
      vertex -470 622 52.8
    endloop
  endfacet
  facet normal -1 0 0
    outer loop
      vertex -470 365 44
      vertex -470 578 52.8
      vertex -470 578 44
    endloop
  endfacet
  facet normal -1 -0 0
    outer loop
      vertex -470 578 52.8
      vertex -470 365 44
      vertex -470 365 52.8
    endloop
  endfacet
  facet normal -1 0 0
    outer loop
      vertex -470 108 44
      vertex -470 321 52.8
      vertex -470 321 44
    endloop
  endfacet
  facet normal -1 -0 0
    outer loop
      vertex -470 321 52.8
      vertex -470 108 44
      vertex -470 108 52.8
    endloop
  endfacet
  facet normal -1 0 0
    outer loop
      vertex -470 -149 44
      vertex -470 64 52.8
      vertex -470 64 44
    endloop
  endfacet
  facet normal -1 -0 0
    outer loop
      vertex -470 64 52.8
      vertex -470 -149 44
      vertex -470 -149 52.8
    endloop
  endfacet
  facet normal -1 0 0
    outer loop
      vertex -470 -406 44
      vertex -470 -193 52.8
      vertex -470 -193 44
    endloop
  endfacet
  facet normal -1 -0 0
    outer loop
      vertex -470 -193 52.8
      vertex -470 -406 44
      vertex -470 -406 52.8
    endloop
  endfacet
  facet normal -1 0 0
    outer loop
      vertex -470 -663 44
      vertex -470 -450 52.8
      vertex -470 -450 44
    endloop
  endfacet
  facet normal -1 -0 0
    outer loop
      vertex -470 -450 52.8
      vertex -470 -663 44
      vertex -470 -663 52.8
    endloop
  endfacet
  facet normal 0 0 -1
    outer loop
      vertex -514 879 324
      vertex -470 920 324
      vertex -470 879 324
    endloop
  endfacet
  facet normal -0 0 -1
    outer loop
      vertex -470 920 324
      vertex -514 879 324
      vertex -514 920 324
    endloop
  endfacet
  facet normal 0 0 -1
    outer loop
      vertex -514 622 324
      vertex -470 835 324
      vertex -470 622 324
    endloop
  endfacet
  facet normal -0 0 -1
    outer loop
      vertex -470 835 324
      vertex -514 622 324
      vertex -514 835 324
    endloop
  endfacet
  facet normal 0 0 -1
    outer loop
      vertex -514 365 324
      vertex -470 578 324
      vertex -470 365 324
    endloop
  endfacet
  facet normal -0 0 -1
    outer loop
      vertex -470 578 324
      vertex -514 365 324
      vertex -514 578 324
    endloop
  endfacet
  facet normal 0 0 -1
    outer loop
      vertex -514 108 324
      vertex -470 321 324
      vertex -470 108 324
    endloop
  endfacet
  facet normal -0 0 -1
    outer loop
      vertex -470 321 324
      vertex -514 108 324
      vertex -514 321 324
    endloop
  endfacet
  facet normal 0 0 -1
    outer loop
      vertex -514 -149 324
      vertex -470 64 324
      vertex -470 -149 324
    endloop
  endfacet
  facet normal -0 0 -1
    outer loop
      vertex -470 64 324
      vertex -514 -149 324
      vertex -514 64 324
    endloop
  endfacet
  facet normal 0 0 -1
    outer loop
      vertex -514 -406 324
      vertex -470 -193 324
      vertex -470 -406 324
    endloop
  endfacet
  facet normal -0 0 -1
    outer loop
      vertex -470 -193 324
      vertex -514 -406 324
      vertex -514 -193 324
    endloop
  endfacet
  facet normal 0 0 -1
    outer loop
      vertex -514 -663 324
      vertex -470 -450 324
      vertex -470 -663 324
    endloop
  endfacet
  facet normal -0 0 -1
    outer loop
      vertex -470 -450 324
      vertex -514 -663 324
      vertex -514 -450 324
    endloop
  endfacet
  facet normal 0 0 -1
    outer loop
      vertex -514 -920 324
      vertex -470 -707 324
      vertex -470 -920 324
    endloop
  endfacet
  facet normal -0 0 -1
    outer loop
      vertex -470 -707 324
      vertex -514 -920 324
      vertex -514 -707 324
    endloop
  endfacet
  facet normal -0 0 1
    outer loop
      vertex -514 920 44
      vertex -470 879 44
      vertex -470 920 44
    endloop
  endfacet
  facet normal 0 0 1
    outer loop
      vertex -470 879 44
      vertex -514 920 44
      vertex -514 879 44
    endloop
  endfacet
  facet normal -0 0 1
    outer loop
      vertex -514 835 44
      vertex -470 622 44
      vertex -470 835 44
    endloop
  endfacet
  facet normal 0 0 1
    outer loop
      vertex -470 622 44
      vertex -514 835 44
      vertex -514 622 44
    endloop
  endfacet
  facet normal -0 0 1
    outer loop
      vertex -514 578 44
      vertex -470 365 44
      vertex -470 578 44
    endloop
  endfacet
  facet normal 0 0 1
    outer loop
      vertex -470 365 44
      vertex -514 578 44
      vertex -514 365 44
    endloop
  endfacet
  facet normal -0 0 1
    outer loop
      vertex -514 321 44
      vertex -470 108 44
      vertex -470 321 44
    endloop
  endfacet
  facet normal 0 0 1
    outer loop
      vertex -470 108 44
      vertex -514 321 44
      vertex -514 108 44
    endloop
  endfacet
  facet normal -0 0 1
    outer loop
      vertex -514 64 44
      vertex -470 -149 44
      vertex -470 64 44
    endloop
  endfacet
  facet normal 0 0 1
    outer loop
      vertex -470 -149 44
      vertex -514 64 44
      vertex -514 -149 44
    endloop
  endfacet
  facet normal -0 0 1
    outer loop
      vertex -514 -193 44
      vertex -470 -406 44
      vertex -470 -193 44
    endloop
  endfacet
  facet normal 0 0 1
    outer loop
      vertex -470 -406 44
      vertex -514 -193 44
      vertex -514 -406 44
    endloop
  endfacet
  facet normal -0 0 1
    outer loop
      vertex -514 -450 44
      vertex -470 -663 44
      vertex -470 -450 44
    endloop
  endfacet
  facet normal 0 0 1
    outer loop
      vertex -470 -663 44
      vertex -514 -450 44
      vertex -514 -663 44
    endloop
  endfacet
  facet normal -0 0 1
    outer loop
      vertex -514 -707 44
      vertex -470 -920 44
      vertex -470 -707 44
    endloop
  endfacet
  facet normal 0 0 1
    outer loop
      vertex -470 -920 44
      vertex -514 -707 44
      vertex -514 -920 44
    endloop
  endfacet
  facet normal 0 1 -0
    outer loop
      vertex -470 -663 52.8
      vertex -514 -663 324
      vertex -470 -663 324
    endloop
  endfacet
  facet normal 0 1 0
    outer loop
      vertex -514 -663 44
      vertex -470 -663 52.8
      vertex -470 -663 44
    endloop
  endfacet
  facet normal 0 1 0
    outer loop
      vertex -470 -663 52.8
      vertex -514 -663 44
      vertex -514 -663 324
    endloop
  endfacet
  facet normal 0 -1 0
    outer loop
      vertex -514 -707 324
      vertex -470 -707 52.8
      vertex -470 -707 324
    endloop
  endfacet
  facet normal 0 -1 0
    outer loop
      vertex -514 -707 44
      vertex -470 -707 52.8
      vertex -514 -707 324
    endloop
  endfacet
  facet normal 0 -1 -0
    outer loop
      vertex -470 -707 52.8
      vertex -514 -707 44
      vertex -470 -707 44
    endloop
  endfacet
  facet normal 0 1 -0
    outer loop
      vertex -470 -406 52.8
      vertex -514 -406 324
      vertex -470 -406 324
    endloop
  endfacet
  facet normal 0 1 0
    outer loop
      vertex -514 -406 44
      vertex -470 -406 52.8
      vertex -470 -406 44
    endloop
  endfacet
  facet normal 0 1 0
    outer loop
      vertex -470 -406 52.8
      vertex -514 -406 44
      vertex -514 -406 324
    endloop
  endfacet
  facet normal 0 -1 0
    outer loop
      vertex -514 -450 324
      vertex -470 -450 52.8
      vertex -470 -450 324
    endloop
  endfacet
  facet normal 0 -1 0
    outer loop
      vertex -514 -450 44
      vertex -470 -450 52.8
      vertex -514 -450 324
    endloop
  endfacet
  facet normal 0 -1 -0
    outer loop
      vertex -470 -450 52.8
      vertex -514 -450 44
      vertex -470 -450 44
    endloop
  endfacet
  facet normal 0 1 -0
    outer loop
      vertex -470 -149 52.8
      vertex -514 -149 324
      vertex -470 -149 324
    endloop
  endfacet
  facet normal 0 1 0
    outer loop
      vertex -514 -149 44
      vertex -470 -149 52.8
      vertex -470 -149 44
    endloop
  endfacet
  facet normal 0 1 0
    outer loop
      vertex -470 -149 52.8
      vertex -514 -149 44
      vertex -514 -149 324
    endloop
  endfacet
  facet normal 0 -1 0
    outer loop
      vertex -514 -193 324
      vertex -470 -193 52.8
      vertex -470 -193 324
    endloop
  endfacet
  facet normal 0 -1 0
    outer loop
      vertex -514 -193 44
      vertex -470 -193 52.8
      vertex -514 -193 324
    endloop
  endfacet
  facet normal 0 -1 -0
    outer loop
      vertex -470 -193 52.8
      vertex -514 -193 44
      vertex -470 -193 44
    endloop
  endfacet
  facet normal 0 1 -0
    outer loop
      vertex -470 108 52.8
      vertex -514 108 324
      vertex -470 108 324
    endloop
  endfacet
  facet normal 0 1 0
    outer loop
      vertex -514 108 44
      vertex -470 108 52.8
      vertex -470 108 44
    endloop
  endfacet
  facet normal 0 1 0
    outer loop
      vertex -470 108 52.8
      vertex -514 108 44
      vertex -514 108 324
    endloop
  endfacet
  facet normal 0 -1 0
    outer loop
      vertex -514 64 324
      vertex -470 64 52.8
      vertex -470 64 324
    endloop
  endfacet
  facet normal 0 -1 0
    outer loop
      vertex -514 64 44
      vertex -470 64 52.8
      vertex -514 64 324
    endloop
  endfacet
  facet normal 0 -1 -0
    outer loop
      vertex -470 64 52.8
      vertex -514 64 44
      vertex -470 64 44
    endloop
  endfacet
  facet normal 0 1 -0
    outer loop
      vertex -470 365 52.8
      vertex -514 365 324
      vertex -470 365 324
    endloop
  endfacet
  facet normal 0 1 0
    outer loop
      vertex -514 365 44
      vertex -470 365 52.8
      vertex -470 365 44
    endloop
  endfacet
  facet normal 0 1 0
    outer loop
      vertex -470 365 52.8
      vertex -514 365 44
      vertex -514 365 324
    endloop
  endfacet
  facet normal 0 -1 0
    outer loop
      vertex -514 321 324
      vertex -470 321 52.8
      vertex -470 321 324
    endloop
  endfacet
  facet normal 0 -1 0
    outer loop
      vertex -514 321 44
      vertex -470 321 52.8
      vertex -514 321 324
    endloop
  endfacet
  facet normal 0 -1 -0
    outer loop
      vertex -470 321 52.8
      vertex -514 321 44
      vertex -470 321 44
    endloop
  endfacet
  facet normal 0 1 -0
    outer loop
      vertex -470 622 52.8
      vertex -514 622 324
      vertex -470 622 324
    endloop
  endfacet
  facet normal 0 1 0
    outer loop
      vertex -514 622 44
      vertex -470 622 52.8
      vertex -470 622 44
    endloop
  endfacet
  facet normal 0 1 0
    outer loop
      vertex -470 622 52.8
      vertex -514 622 44
      vertex -514 622 324
    endloop
  endfacet
  facet normal 0 -1 0
    outer loop
      vertex -514 578 324
      vertex -470 578 52.8
      vertex -470 578 324
    endloop
  endfacet
  facet normal 0 -1 0
    outer loop
      vertex -514 578 44
      vertex -470 578 52.8
      vertex -514 578 324
    endloop
  endfacet
  facet normal 0 -1 -0
    outer loop
      vertex -470 578 52.8
      vertex -514 578 44
      vertex -470 578 44
    endloop
  endfacet
  facet normal 0 1 -0
    outer loop
      vertex -470 879 52.8
      vertex -514 879 324
      vertex -470 879 324
    endloop
  endfacet
  facet normal 0 1 0
    outer loop
      vertex -514 879 44
      vertex -470 879 52.8
      vertex -470 879 44
    endloop
  endfacet
  facet normal 0 1 0
    outer loop
      vertex -470 879 52.8
      vertex -514 879 44
      vertex -514 879 324
    endloop
  endfacet
  facet normal 0 -1 0
    outer loop
      vertex -514 835 324
      vertex -470 835 52.8
      vertex -470 835 324
    endloop
  endfacet
  facet normal 0 -1 0
    outer loop
      vertex -514 835 44
      vertex -470 835 52.8
      vertex -514 835 324
    endloop
  endfacet
  facet normal 0 -1 -0
    outer loop
      vertex -470 835 52.8
      vertex -514 835 44
      vertex -470 835 44
    endloop
  endfacet
  facet normal 0 0 -1
    outer loop
      vertex -514 -920 0
      vertex -470 920 0
      vertex -470 -920 0
    endloop
  endfacet
  facet normal -0 0 -1
    outer loop
      vertex -470 920 0
      vertex -514 -920 0
      vertex -514 920 0
    endloop
  endfacet
  facet normal -0 0 1
    outer loop
      vertex -514 920 368
      vertex -470 -920 368
      vertex -470 920 368
    endloop
  endfacet
  facet normal 0 0 1
    outer loop
      vertex -470 -920 368
      vertex -514 920 368
      vertex -514 -920 368
    endloop
  endfacet
  facet normal 1 -0 0
    outer loop
      vertex -460 -870 23.8
      vertex -460 870 13.8
      vertex -460 870 23.8
    endloop
  endfacet
  facet normal 1 0 0
    outer loop
      vertex -460 870 13.8
      vertex -460 -870 23.8
      vertex -460 -870 13.8
    endloop
  endfacet
  facet normal -0 0 1
    outer loop
      vertex -470 870 23.8
      vertex -460 -870 23.8
      vertex -460 870 23.8
    endloop
  endfacet
  facet normal 0 0 1
    outer loop
      vertex -460 -870 23.8
      vertex -470 870 23.8
      vertex -470 -870 23.8
    endloop
  endfacet
  facet normal 0 0 -1
    outer loop
      vertex -470 -870 13.8
      vertex -460 870 13.8
      vertex -460 -870 13.8
    endloop
  endfacet
  facet normal -0 0 -1
    outer loop
      vertex -460 870 13.8
      vertex -470 -870 13.8
      vertex -470 870 13.8
    endloop
  endfacet
  facet normal 0 1 -0
    outer loop
      vertex -460 870 13.8
      vertex -470 870 23.8
      vertex -460 870 23.8
    endloop
  endfacet
  facet normal 0 1 0
    outer loop
      vertex -470 870 23.8
      vertex -460 870 13.8
      vertex -470 870 13.8
    endloop
  endfacet
  facet normal 0 -1 0
    outer loop
      vertex -470 -870 13.8
      vertex -460 -870 23.8
      vertex -470 -870 23.8
    endloop
  endfacet
  facet normal 0 -1 -0
    outer loop
      vertex -460 -870 23.8
      vertex -470 -870 13.8
      vertex -460 -870 13.8
    endloop
  endfacet
  facet normal 0 0 -1
    outer loop
      vertex 470 892 324
      vertex 514 920 324
      vertex 514 892 324
    endloop
  endfacet
  facet normal -0 0 -1
    outer loop
      vertex 514 920 324
      vertex 470 892 324
      vertex 470 920 324
    endloop
  endfacet
  facet normal 0 0 -1
    outer loop
      vertex 470 635 324
      vertex 514 848 324
      vertex 514 635 324
    endloop
  endfacet
  facet normal -0 0 -1
    outer loop
      vertex 514 848 324
      vertex 470 635 324
      vertex 470 848 324
    endloop
  endfacet
  facet normal 0 0 -1
    outer loop
      vertex 470 378 324
      vertex 514 591 324
      vertex 514 378 324
    endloop
  endfacet
  facet normal -0 0 -1
    outer loop
      vertex 514 591 324
      vertex 470 378 324
      vertex 470 591 324
    endloop
  endfacet
  facet normal 0 0 -1
    outer loop
      vertex 470 121 324
      vertex 514 334 324
      vertex 514 121 324
    endloop
  endfacet
  facet normal -0 0 -1
    outer loop
      vertex 514 334 324
      vertex 470 121 324
      vertex 470 334 324
    endloop
  endfacet
  facet normal 0 0 -1
    outer loop
      vertex 470 -136 324
      vertex 514 77 324
      vertex 514 -136 324
    endloop
  endfacet
  facet normal -0 0 -1
    outer loop
      vertex 514 77 324
      vertex 470 -136 324
      vertex 470 77 324
    endloop
  endfacet
  facet normal -0 0 1
    outer loop
      vertex 470 920 44
      vertex 514 892 44
      vertex 514 920 44
    endloop
  endfacet
  facet normal 0 0 1
    outer loop
      vertex 514 892 44
      vertex 470 920 44
      vertex 470 892 44
    endloop
  endfacet
  facet normal -0 0 1
    outer loop
      vertex 470 848 44
      vertex 514 635 44
      vertex 514 848 44
    endloop
  endfacet
  facet normal 0 0 1
    outer loop
      vertex 514 635 44
      vertex 470 848 44
      vertex 470 635 44
    endloop
  endfacet
  facet normal -0 0 1
    outer loop
      vertex 470 591 44
      vertex 514 378 44
      vertex 514 591 44
    endloop
  endfacet
  facet normal 0 0 1
    outer loop
      vertex 514 378 44
      vertex 470 591 44
      vertex 470 378 44
    endloop
  endfacet
  facet normal -0 0 1
    outer loop
      vertex 470 334 44
      vertex 514 121 44
      vertex 514 334 44
    endloop
  endfacet
  facet normal 0 0 1
    outer loop
      vertex 514 121 44
      vertex 470 334 44
      vertex 470 121 44
    endloop
  endfacet
  facet normal -0 0 1
    outer loop
      vertex 470 77 44
      vertex 514 -136 44
      vertex 514 77 44
    endloop
  endfacet
  facet normal 0 0 1
    outer loop
      vertex 514 -136 44
      vertex 470 77 44
      vertex 470 -136 44
    endloop
  endfacet
  facet normal -0 0 1
    outer loop
      vertex 470 -180 44
      vertex 514 -920 44
      vertex 514 -180 44
    endloop
  endfacet
  facet normal 0 0 1
    outer loop
      vertex 514 -920 44
      vertex 470 -180 44
      vertex 470 -920 44
    endloop
  endfacet
  facet normal 1 -0 0
    outer loop
      vertex 470 892 52.8
      vertex 470 920 44
      vertex 470 920 52.8
    endloop
  endfacet
  facet normal 1 0 0
    outer loop
      vertex 470 920 44
      vertex 470 892 52.8
      vertex 470 892 44
    endloop
  endfacet
  facet normal -1 0 0
    outer loop
      vertex 470 920 0
      vertex 470 870 13.8
      vertex 470 920 24.8
    endloop
  endfacet
  facet normal -1 0 0
    outer loop
      vertex 470 920 0
      vertex 470 -870 13.8
      vertex 470 870 13.8
    endloop
  endfacet
  facet normal -1 0 0
    outer loop
      vertex 470 -920 24.8
      vertex 470 -870 13.8
      vertex 470 -920 0
    endloop
  endfacet
  facet normal -1 0 0
    outer loop
      vertex 470 -920 0
      vertex 470 -870 13.8
      vertex 470 920 0
    endloop
  endfacet
  facet normal -1 0 0
    outer loop
      vertex 470 870 23.8
      vertex 470 920 24.8
      vertex 470 870 13.8
    endloop
  endfacet
  facet normal -1 0 0
    outer loop
      vertex 470 -870 23.8
      vertex 470 920 24.8
      vertex 470 870 23.8
    endloop
  endfacet
  facet normal -1 0 0
    outer loop
      vertex 470 -870 23.8
      vertex 470 -920 24.8
      vertex 470 920 24.8
    endloop
  endfacet
  facet normal -1 0 0
    outer loop
      vertex 470 -870 13.8
      vertex 470 -920 24.8
      vertex 470 -870 23.8
    endloop
  endfacet
  facet normal 1 -0 0
    outer loop
      vertex 470 -920 52.8
      vertex 470 -180 44
      vertex 470 -180 52.8
    endloop
  endfacet
  facet normal 1 0 0
    outer loop
      vertex 470 -180 44
      vertex 470 -920 52.8
      vertex 470 -920 44
    endloop
  endfacet
  facet normal -1 0 0
    outer loop
      vertex 470 -136 52.8
      vertex 470 -180 52.8
      vertex 470 -136 324
    endloop
  endfacet
  facet normal -1 0 0
    outer loop
      vertex 470 121 52.8
      vertex 470 77 52.8
      vertex 470 121 324
    endloop
  endfacet
  facet normal -1 0 0
    outer loop
      vertex 470 378 52.8
      vertex 470 334 52.8
      vertex 470 378 324
    endloop
  endfacet
  facet normal -1 0 0
    outer loop
      vertex 470 635 52.8
      vertex 470 591 52.8
      vertex 470 635 324
    endloop
  endfacet
  facet normal -1 0 0
    outer loop
      vertex 470 892 52.8
      vertex 470 848 52.8
      vertex 470 892 324
    endloop
  endfacet
  facet normal -1 0 0
    outer loop
      vertex 470 892 324
      vertex 470 920 368
      vertex 470 920 324
    endloop
  endfacet
  facet normal -1 0 0
    outer loop
      vertex 470 848 324
      vertex 470 892 324
      vertex 470 848 52.8
    endloop
  endfacet
  facet normal -1 0 0
    outer loop
      vertex 470 848 324
      vertex 470 920 368
      vertex 470 892 324
    endloop
  endfacet
  facet normal -1 0 0
    outer loop
      vertex 470 635 324
      vertex 470 920 368
      vertex 470 848 324
    endloop
  endfacet
  facet normal -1 0 0
    outer loop
      vertex 470 591 324
      vertex 470 635 324
      vertex 470 591 52.8
    endloop
  endfacet
  facet normal -1 0 0
    outer loop
      vertex 470 591 324
      vertex 470 920 368
      vertex 470 635 324
    endloop
  endfacet
  facet normal -1 0 0
    outer loop
      vertex 470 378 324
      vertex 470 920 368
      vertex 470 591 324
    endloop
  endfacet
  facet normal -1 0 0
    outer loop
      vertex 470 334 324
      vertex 470 378 324
      vertex 470 334 52.8
    endloop
  endfacet
  facet normal -1 0 0
    outer loop
      vertex 470 334 324
      vertex 470 920 368
      vertex 470 378 324
    endloop
  endfacet
  facet normal -1 0 0
    outer loop
      vertex 470 -180 368
      vertex 470 334 324
      vertex 470 121 324
    endloop
  endfacet
  facet normal -1 0 0
    outer loop
      vertex 470 77 324
      vertex 470 121 324
      vertex 470 77 52.8
    endloop
  endfacet
  facet normal -1 0 0
    outer loop
      vertex 470 -180 368
      vertex 470 121 324
      vertex 470 77 324
    endloop
  endfacet
  facet normal -1 0 0
    outer loop
      vertex 470 -180 368
      vertex 470 77 324
      vertex 470 -136 324
    endloop
  endfacet
  facet normal -1 0 0
    outer loop
      vertex 470 334 324
      vertex 470 -180 368
      vertex 470 920 368
    endloop
  endfacet
  facet normal -1 0 0
    outer loop
      vertex 470 -180 368
      vertex 470 -136 324
      vertex 470 -180 52.8
    endloop
  endfacet
  facet normal 1 -0 0
    outer loop
      vertex 470 635 52.8
      vertex 470 848 44
      vertex 470 848 52.8
    endloop
  endfacet
  facet normal 1 0 0
    outer loop
      vertex 470 848 44
      vertex 470 635 52.8
      vertex 470 635 44
    endloop
  endfacet
  facet normal 1 -0 0
    outer loop
      vertex 470 378 52.8
      vertex 470 591 44
      vertex 470 591 52.8
    endloop
  endfacet
  facet normal 1 0 0
    outer loop
      vertex 470 591 44
      vertex 470 378 52.8
      vertex 470 378 44
    endloop
  endfacet
  facet normal 1 -0 0
    outer loop
      vertex 470 121 52.8
      vertex 470 334 44
      vertex 470 334 52.8
    endloop
  endfacet
  facet normal 1 0 0
    outer loop
      vertex 470 334 44
      vertex 470 121 52.8
      vertex 470 121 44
    endloop
  endfacet
  facet normal 1 -0 0
    outer loop
      vertex 470 -136 52.8
      vertex 470 77 44
      vertex 470 77 52.8
    endloop
  endfacet
  facet normal 1 0 0
    outer loop
      vertex 470 77 44
      vertex 470 -136 52.8
      vertex 470 -136 44
    endloop
  endfacet
  facet normal 0 1 0
    outer loop
      vertex 514 -136 324
      vertex 470 -136 52.8
      vertex 470 -136 324
    endloop
  endfacet
  facet normal 0 1 -0
    outer loop
      vertex 514 -136 44
      vertex 470 -136 52.8
      vertex 514 -136 324
    endloop
  endfacet
  facet normal 0 1 0
    outer loop
      vertex 470 -136 52.8
      vertex 514 -136 44
      vertex 470 -136 44
    endloop
  endfacet
  facet normal 0 -1 0
    outer loop
      vertex 470 -180 52.8
      vertex 514 -180 368
      vertex 470 -180 368
    endloop
  endfacet
  facet normal 0 -1 0
    outer loop
      vertex 514 -180 44
      vertex 470 -180 52.8
      vertex 470 -180 44
    endloop
  endfacet
  facet normal 0 -1 0
    outer loop
      vertex 470 -180 52.8
      vertex 514 -180 44
      vertex 514 -180 368
    endloop
  endfacet
  facet normal 0 1 0
    outer loop
      vertex 514 121 324
      vertex 470 121 52.8
      vertex 470 121 324
    endloop
  endfacet
  facet normal 0 1 -0
    outer loop
      vertex 514 121 44
      vertex 470 121 52.8
      vertex 514 121 324
    endloop
  endfacet
  facet normal 0 1 0
    outer loop
      vertex 470 121 52.8
      vertex 514 121 44
      vertex 470 121 44
    endloop
  endfacet
  facet normal 0 -1 0
    outer loop
      vertex 470 77 52.8
      vertex 514 77 324
      vertex 470 77 324
    endloop
  endfacet
  facet normal 0 -1 0
    outer loop
      vertex 514 77 44
      vertex 470 77 52.8
      vertex 470 77 44
    endloop
  endfacet
  facet normal 0 -1 0
    outer loop
      vertex 470 77 52.8
      vertex 514 77 44
      vertex 514 77 324
    endloop
  endfacet
  facet normal 0 1 0
    outer loop
      vertex 514 378 324
      vertex 470 378 52.8
      vertex 470 378 324
    endloop
  endfacet
  facet normal 0 1 -0
    outer loop
      vertex 514 378 44
      vertex 470 378 52.8
      vertex 514 378 324
    endloop
  endfacet
  facet normal 0 1 0
    outer loop
      vertex 470 378 52.8
      vertex 514 378 44
      vertex 470 378 44
    endloop
  endfacet
  facet normal 0 -1 0
    outer loop
      vertex 470 334 52.8
      vertex 514 334 324
      vertex 470 334 324
    endloop
  endfacet
  facet normal 0 -1 0
    outer loop
      vertex 514 334 44
      vertex 470 334 52.8
      vertex 470 334 44
    endloop
  endfacet
  facet normal 0 -1 0
    outer loop
      vertex 470 334 52.8
      vertex 514 334 44
      vertex 514 334 324
    endloop
  endfacet
  facet normal 0 1 0
    outer loop
      vertex 514 635 324
      vertex 470 635 52.8
      vertex 470 635 324
    endloop
  endfacet
  facet normal 0 1 -0
    outer loop
      vertex 514 635 44
      vertex 470 635 52.8
      vertex 514 635 324
    endloop
  endfacet
  facet normal 0 1 0
    outer loop
      vertex 470 635 52.8
      vertex 514 635 44
      vertex 470 635 44
    endloop
  endfacet
  facet normal 0 -1 0
    outer loop
      vertex 470 591 52.8
      vertex 514 591 324
      vertex 470 591 324
    endloop
  endfacet
  facet normal 0 -1 0
    outer loop
      vertex 514 591 44
      vertex 470 591 52.8
      vertex 470 591 44
    endloop
  endfacet
  facet normal 0 -1 0
    outer loop
      vertex 470 591 52.8
      vertex 514 591 44
      vertex 514 591 324
    endloop
  endfacet
  facet normal 0 1 0
    outer loop
      vertex 514 892 324
      vertex 470 892 52.8
      vertex 470 892 324
    endloop
  endfacet
  facet normal 0 1 -0
    outer loop
      vertex 514 892 44
      vertex 470 892 52.8
      vertex 514 892 324
    endloop
  endfacet
  facet normal 0 1 0
    outer loop
      vertex 470 892 52.8
      vertex 514 892 44
      vertex 470 892 44
    endloop
  endfacet
  facet normal 0 -1 0
    outer loop
      vertex 470 848 52.8
      vertex 514 848 324
      vertex 470 848 324
    endloop
  endfacet
  facet normal 0 -1 0
    outer loop
      vertex 514 848 44
      vertex 470 848 52.8
      vertex 470 848 44
    endloop
  endfacet
  facet normal 0 -1 0
    outer loop
      vertex 470 848 52.8
      vertex 514 848 44
      vertex 514 848 324
    endloop
  endfacet
  facet normal -0 0 1
    outer loop
      vertex 470 920 368
      vertex 514 -180 368
      vertex 514 920 368
    endloop
  endfacet
  facet normal 0 0 1
    outer loop
      vertex 514 -180 368
      vertex 470 920 368
      vertex 470 -180 368
    endloop
  endfacet
  facet normal 0 0 -1
    outer loop
      vertex 470 -920 0
      vertex 514 920 0
      vertex 514 -920 0
    endloop
  endfacet
  facet normal -0 0 -1
    outer loop
      vertex 514 920 0
      vertex 470 -920 0
      vertex 470 920 0
    endloop
  endfacet
  facet normal -0 0 1
    outer loop
      vertex 460 870 23.8
      vertex 470 -870 23.8
      vertex 470 870 23.8
    endloop
  endfacet
  facet normal 0 0 1
    outer loop
      vertex 470 -870 23.8
      vertex 460 870 23.8
      vertex 460 -870 23.8
    endloop
  endfacet
  facet normal 0 0 -1
    outer loop
      vertex 460 -870 13.8
      vertex 470 870 13.8
      vertex 470 -870 13.8
    endloop
  endfacet
  facet normal -0 0 -1
    outer loop
      vertex 470 870 13.8
      vertex 460 -870 13.8
      vertex 460 870 13.8
    endloop
  endfacet
  facet normal -1 0 0
    outer loop
      vertex 460 -870 13.8
      vertex 460 870 23.8
      vertex 460 870 13.8
    endloop
  endfacet
  facet normal -1 -0 0
    outer loop
      vertex 460 870 23.8
      vertex 460 -870 13.8
      vertex 460 -870 23.8
    endloop
  endfacet
  facet normal 0 1 -0
    outer loop
      vertex 470 870 13.8
      vertex 460 870 23.8
      vertex 470 870 23.8
    endloop
  endfacet
  facet normal 0 1 0
    outer loop
      vertex 460 870 23.8
      vertex 470 870 13.8
      vertex 460 870 13.8
    endloop
  endfacet
  facet normal 0 -1 0
    outer loop
      vertex 460 -870 13.8
      vertex 470 -870 23.8
      vertex 460 -870 23.8
    endloop
  endfacet
  facet normal 0 -1 -0
    outer loop
      vertex 470 -870 23.8
      vertex 460 -870 13.8
      vertex 470 -870 13.8
    endloop
  endfacet
  facet normal -0 0 1
    outer loop
      vertex 279 920 52.8
      vertex 470 892 52.8
      vertex 470 920 52.8
    endloop
  endfacet
  facet normal 0 0 1
    outer loop
      vertex 470 892 52.8
      vertex 279 920 52.8
      vertex 470 848 52.8
    endloop
  endfacet
  facet normal 0 0 1
    outer loop
      vertex 470 848 52.8
      vertex 279 920 52.8
      vertex 470 635 52.8
    endloop
  endfacet
  facet normal -0 0 1
    outer loop
      vertex 235.001 920 52.8
      vertex 470 635 52.8
      vertex 279 920 52.8
    endloop
  endfacet
  facet normal 0 0 1
    outer loop
      vertex 470 635 52.8
      vertex 235.001 920 52.8
      vertex 470 591 52.8
    endloop
  endfacet
  facet normal -0 0 1
    outer loop
      vertex 22.0005 920 52.8
      vertex 470 591 52.8
      vertex 235.001 920 52.8
    endloop
  endfacet
  facet normal 0 0 1
    outer loop
      vertex 470 591 52.8
      vertex 22.0005 920 52.8
      vertex 470 378 52.8
    endloop
  endfacet
  facet normal 0 0 1
    outer loop
      vertex -470 365 52.8
      vertex 470 378 52.8
      vertex 22.0005 920 52.8
    endloop
  endfacet
  facet normal 0 0 1
    outer loop
      vertex 470 378 52.8
      vertex -470 365 52.8
      vertex 470 334 52.8
    endloop
  endfacet
  facet normal 0 0 1
    outer loop
      vertex -470 321 52.8
      vertex 470 334 52.8
      vertex -470 365 52.8
    endloop
  endfacet
  facet normal 0 0 1
    outer loop
      vertex 470 334 52.8
      vertex -470 321 52.8
      vertex 470 121 52.8
    endloop
  endfacet
  facet normal 0 0 1
    outer loop
      vertex 470 -136 52.8
      vertex -470 -149 52.8
      vertex 470 -180 52.8
    endloop
  endfacet
  facet normal 0 0 1
    outer loop
      vertex -470 64 52.8
      vertex 470 77 52.8
      vertex -470 108 52.8
    endloop
  endfacet
  facet normal 0 0 1
    outer loop
      vertex -470 -193 52.8
      vertex 470 -180 52.8
      vertex -470 -149 52.8
    endloop
  endfacet
  facet normal 0 0 1
    outer loop
      vertex 470 121 52.8
      vertex -470 108 52.8
      vertex 470 77 52.8
    endloop
  endfacet
  facet normal 0 0 1
    outer loop
      vertex 470 -180 52.8
      vertex 279 -920 52.8
      vertex 470 -920 52.8
    endloop
  endfacet
  facet normal 0 0 1
    outer loop
      vertex -470 365 52.8
      vertex 22.0005 920 52.8
      vertex -21.9995 920 52.8
    endloop
  endfacet
  facet normal 0 0 1
    outer loop
      vertex -470 -406 52.8
      vertex 470 -180 52.8
      vertex -470 -193 52.8
    endloop
  endfacet
  facet normal 0 0 1
    outer loop
      vertex -470 578 52.8
      vertex -21.9995 920 52.8
      vertex -234.999 920 52.8
    endloop
  endfacet
  facet normal 0 0 1
    outer loop
      vertex -470 -149 52.8
      vertex 470 -136 52.8
      vertex -470 64 52.8
    endloop
  endfacet
  facet normal 0 0 1
    outer loop
      vertex -470 622 52.8
      vertex -234.999 920 52.8
      vertex -279 920 52.8
    endloop
  endfacet
  facet normal 0 -0 1
    outer loop
      vertex 21.9995 -920 52.8
      vertex 470 -180 52.8
      vertex -470 -406 52.8
    endloop
  endfacet
  facet normal 0 0 1
    outer loop
      vertex -470 879 52.8
      vertex -279 920 52.8
      vertex -470 920 52.8
    endloop
  endfacet
  facet normal 0 0 1
    outer loop
      vertex -470 835 52.8
      vertex -279 920 52.8
      vertex -470 879 52.8
    endloop
  endfacet
  facet normal 0 0 1
    outer loop
      vertex -470 622 52.8
      vertex -279 920 52.8
      vertex -470 835 52.8
    endloop
  endfacet
  facet normal 0 0 1
    outer loop
      vertex -234.999 920 52.8
      vertex -470 622 52.8
      vertex -470 578 52.8
    endloop
  endfacet
  facet normal 0 0 1
    outer loop
      vertex -21.9995 920 52.8
      vertex -470 578 52.8
      vertex -470 365 52.8
    endloop
  endfacet
  facet normal 0 0 1
    outer loop
      vertex -470 108 52.8
      vertex 470 121 52.8
      vertex -470 321 52.8
    endloop
  endfacet
  facet normal 0 0 1
    outer loop
      vertex 470 77 52.8
      vertex -470 64 52.8
      vertex 470 -136 52.8
    endloop
  endfacet
  facet normal 0 0 1
    outer loop
      vertex 470 -180 52.8
      vertex 234.999 -920 52.8
      vertex 279 -920 52.8
    endloop
  endfacet
  facet normal 0 0 1
    outer loop
      vertex 470 -180 52.8
      vertex 21.9995 -920 52.8
      vertex 234.999 -920 52.8
    endloop
  endfacet
  facet normal -0 0 1
    outer loop
      vertex -470 -450 52.8
      vertex 21.9995 -920 52.8
      vertex -470 -406 52.8
    endloop
  endfacet
  facet normal 0 0 1
    outer loop
      vertex 21.9995 -920 52.8
      vertex -470 -450 52.8
      vertex -22.0005 -920 52.8
    endloop
  endfacet
  facet normal -0 0 1
    outer loop
      vertex -470 -663 52.8
      vertex -22.0005 -920 52.8
      vertex -470 -450 52.8
    endloop
  endfacet
  facet normal 0 0 1
    outer loop
      vertex -22.0005 -920 52.8
      vertex -470 -663 52.8
      vertex -235.001 -920 52.8
    endloop
  endfacet
  facet normal -0 0 1
    outer loop
      vertex -470 -707 52.8
      vertex -235.001 -920 52.8
      vertex -470 -663 52.8
    endloop
  endfacet
  facet normal 0 0 1
    outer loop
      vertex -235.001 -920 52.8
      vertex -470 -707 52.8
      vertex -279 -920 52.8
    endloop
  endfacet
  facet normal 0 0 1
    outer loop
      vertex -279 -920 52.8
      vertex -470 -707 52.8
      vertex -470 -920 52.8
    endloop
  endfacet
  facet normal 0 0 -1
    outer loop
      vertex -420 -905 24.8
      vertex 420 905 24.8
      vertex 420 -905 24.8
    endloop
  endfacet
  facet normal -0 0 -1
    outer loop
      vertex 420 905 24.8
      vertex -420 -905 24.8
      vertex -420 905 24.8
    endloop
  endfacet
  facet normal 0 0 -1
    outer loop
      vertex 420 -905 24.8
      vertex 470 -920 24.8
      vertex 420 -915 24.8
    endloop
  endfacet
  facet normal 0 0 -1
    outer loop
      vertex 470 -920 24.8
      vertex -420 -915 24.8
      vertex 420 -915 24.8
    endloop
  endfacet
  facet normal 0 0 -1
    outer loop
      vertex -470 -920 24.8
      vertex -420 -905 24.8
      vertex -420 -915 24.8
    endloop
  endfacet
  facet normal -0 0 -1
    outer loop
      vertex -420 -905 24.8
      vertex -470 -920 24.8
      vertex -420 905 24.8
    endloop
  endfacet
  facet normal 0 0 -1
    outer loop
      vertex -470 920 24.8
      vertex -420 905 24.8
      vertex -470 -920 24.8
    endloop
  endfacet
  facet normal 0 0 -1
    outer loop
      vertex -470 -920 24.8
      vertex -420 -915 24.8
      vertex 470 -920 24.8
    endloop
  endfacet
  facet normal 0 0 -1
    outer loop
      vertex 470 -920 24.8
      vertex 420 -905 24.8
      vertex 470 920 24.8
    endloop
  endfacet
  facet normal 0 0 -1
    outer loop
      vertex 420 905 24.8
      vertex 470 920 24.8
      vertex 420 -905 24.8
    endloop
  endfacet
  facet normal 0 0 -1
    outer loop
      vertex 420 915 24.8
      vertex 470 920 24.8
      vertex 420 905 24.8
    endloop
  endfacet
  facet normal 0 0 -1
    outer loop
      vertex -420 915 24.8
      vertex 470 920 24.8
      vertex 420 915 24.8
    endloop
  endfacet
  facet normal 0 0 -1
    outer loop
      vertex -420 915 24.8
      vertex -470 920 24.8
      vertex 470 920 24.8
    endloop
  endfacet
  facet normal 0 0 -1
    outer loop
      vertex -420 905 24.8
      vertex -470 920 24.8
      vertex -420 915 24.8
    endloop
  endfacet
endsolid OpenSCAD_Model
